<?xml version='1.0' encoding='utf-8'?>
<svg xmlns="http://www.w3.org/2000/svg" viewBox="1066 0 138 138"><g id="audio-midi-browser-light">
    <g id="rect24286-2" data-name="rect24286">
      <path d="M1199,5v128h-128V5h128M1204,0h-138v138h138V0h0Z" fill="#323232" />
    </g>
    <g id="document-2" data-name="document">
      <path id="path24288-2" data-name="path24288" d="M1117.96,48h27.94c.07,0,.13.03.18.08l7.93,7.93h-7.04c-.53,0-.96-.43-.96-.96v-7.04l8,8v33c0,.55-.45,1-1,1h-35.06c-.52,0-.94-.42-.94-.94v-40.11c0-.53.43-.96.96-.96Z" fill="none" stroke="#323232" stroke-linecap="round" stroke-linejoin="round" stroke-width="4.72" />
      <path id="path24290-2" data-name="path24290" d="M1126,63h19" fill="none" stroke="#323232" stroke-linecap="round" stroke-linejoin="round" stroke-width="4.72" />
      <path id="path24292-2" data-name="path24292" d="M1126,71h19" fill="none" stroke="#323232" stroke-linecap="round" stroke-linejoin="round" stroke-width="4.72" />
      <path id="path24294-2" data-name="path24294" d="M1126,79h19" fill="none" stroke="#323232" stroke-linecap="round" stroke-linejoin="round" stroke-width="4.72" />
    </g>
  </g>

  </svg>