<?xml version='1.0' encoding='utf-8'?>
<svg xmlns="http://www.w3.org/2000/svg" viewBox="762 0 138 138"><g id="midi-overview-light">
    <path d="M895,5v128h-128V5h128M900,0h-138v138h138V0h0Z" fill="#323232" />
    <g id="keyboard-2" data-name="keyboard">
      <g id="path24469-2" data-name="path24469">
        <path d="M864,48.98v41.11c0,.5-.41.91-.91.91h-65.14c-.53,0-.95-.43-.95-.95v-41.04c0-.56.45-1.01,1.01-1.01h65.01c.54,0,.98.44.98.98Z" fill="none" stroke="#323232" stroke-linecap="round" stroke-linejoin="round" stroke-width="4.74" />
      </g>
      <g id="path24471-2" data-name="path24471">
        <path d="M808,49v24h7v-24" fill="#323232" stroke="#323232" stroke-linecap="round" stroke-linejoin="round" stroke-width="4.74" />
      </g>
      <g id="path25235-2" data-name="path25235">
        <path d="M827,49v24h7v-24" fill="#323232" stroke="#323232" stroke-linecap="round" stroke-linejoin="round" stroke-width="4.74" />
      </g>
      <g id="path25237-2" data-name="path25237">
        <path d="M846,49v24h7v-24" fill="#323232" stroke="#323232" stroke-linecap="round" stroke-linejoin="round" stroke-width="4.74" />
      </g>
      <g id="path25293-2" data-name="path25293">
        <path d="M812,90v-16" fill="none" stroke="#323232" stroke-linecap="square" stroke-miterlimit="36" stroke-width="2.82" />
      </g>
      <g id="path25943-2" data-name="path25943">
        <path d="M830,90v-16" fill="none" stroke="#323232" stroke-linecap="square" stroke-miterlimit="36" stroke-width="2.82" />
      </g>
      <g id="path25945-2" data-name="path25945">
        <path d="M849,90v-16" fill="none" stroke="#323232" stroke-linecap="square" stroke-miterlimit="36" stroke-width="2.82" />
      </g>
    </g>
  </g>

  </svg>