<?xml version="1.0" encoding="UTF-8"?>
<svg id="track8-keys" xmlns="http://www.w3.org/2000/svg" width="138" height="138" xmlns:xlink="http://www.w3.org/1999/xlink" viewBox="0 0 138 138">
  <defs>
    <symbol id="cushion-grey" viewBox="0 0 137.5 137.5">
      <g id="cushion-grey-2" data-name="cushion-grey">
        <path d="M68.75,4.7c16.69,0,33.62.8,50.3,2.36,5.52.54,10.85,5.87,11.39,11.37,3.14,33.39,3.14,67.25,0,100.62-.54,5.52-5.87,10.85-11.37,11.39-16.7,1.57-33.63,2.36-50.32,2.36s-33.62-.8-50.3-2.36c-5.52-.54-10.85-5.87-11.39-11.37-3.14-33.39-3.14-67.25,0-100.62.54-5.52,5.87-10.85,11.37-11.39,16.7-1.57,33.63-2.36,50.32-2.36M68.75,0c-16.92,0-33.84.79-50.76,2.38-7.75.76-14.84,7.86-15.61,15.61C-.79,51.83-.79,85.67,2.38,119.51c.76,7.75,7.86,14.84,15.61,15.61,16.92,1.59,33.84,2.38,50.76,2.38s33.84-.79,50.76-2.38c7.75-.76,14.84-7.86,15.61-15.61,3.18-33.84,3.18-67.68,0-101.52-.76-7.75-7.86-14.84-15.61-15.61C102.59.79,85.67,0,68.75,0h0Z" fill="#999"/>
      </g>
    </symbol>
  </defs>
  <g id="keypad-grey">
    <g id="audio-midi-browser-grey">
      <g id="document">
        <path id="path24288" d="M48.27,43.58h33.81c.08,0,.16.04.21.09l9.59,9.59h-8.52c-.64,0-1.16-.52-1.16-1.16v-8.52l9.68,9.68v39.93c0,.67-.54,1.21-1.21,1.21h-42.43c-.63,0-1.13-.51-1.14-1.13v-48.53c0-.64.52-1.16,1.16-1.16Z" fill="none" stroke="#999" stroke-linecap="round" stroke-linejoin="round" stroke-width="4.72"/>
        <path id="path24290" d="M58.01,61.74h22.99" fill="none" stroke="#999" stroke-linecap="round" stroke-linejoin="round" stroke-width="4.72"/>
        <path id="path24292" d="M58.01,71.42h22.99" fill="none" stroke="#999" stroke-linecap="round" stroke-linejoin="round" stroke-width="4.72"/>
        <path id="path24294" d="M58.01,81.1h22.99" fill="none" stroke="#999" stroke-linecap="round" stroke-linejoin="round" stroke-width="4.72"/>
      </g>
      <use width="137.5" height="137.5" transform="translate(0 0) scale(1.01)" xlink:href="#cushion-grey"/>
    </g>
  </g>
</svg>