<?xml version="1.0" encoding="UTF-8"?>
<svg id="track8-keys" xmlns="http://www.w3.org/2000/svg" width="138" height="138" viewBox="0 0 138 138">
  <g id="midi-overview-grey">
    <path d="M133,5v128H5V5h128M138,0H0v138h138V0h0Z" fill="#999"/>
    <g id="keyboard">
      <path d="M102,48.98v41.11c0,.5-.41.91-.91.91H35.95c-.53,0-.95-.43-.95-.95v-41.04c0-.56.45-1.01,1.01-1.01h65.01c.54,0,.98.44.98.98Z" fill="none" stroke="#999" stroke-linecap="round" stroke-linejoin="round" stroke-width="4.72"/>
      <path d="M87,90v-16" fill="none" stroke="#999" stroke-linecap="round" stroke-linejoin="round" stroke-width="2.8"/>
      <path d="M68,90v-16" fill="none" stroke="#999" stroke-linecap="round" stroke-linejoin="round" stroke-width="2.8"/>
      <path d="M50,90v-16" fill="none" stroke="#999" stroke-linecap="round" stroke-linejoin="round" stroke-width="2.8"/>
      <path d="M46,49v24h7v-24" fill="#999" stroke="#999" stroke-linecap="round" stroke-linejoin="round" stroke-width="4.72"/>
      <path d="M65,49v24h7v-24" fill="#999" stroke="#999" stroke-linecap="round" stroke-linejoin="round" stroke-width="4.72"/>
      <path d="M84,49v24h7v-24" fill="#999" stroke="#999" stroke-linecap="round" stroke-linejoin="round" stroke-width="4.72"/>
    </g>
  </g>
</svg>