<?xml version="1.0" encoding="UTF-8"?>
<svg id="track8-keys" xmlns="http://www.w3.org/2000/svg" width="138" height="138" xmlns:xlink="http://www.w3.org/1999/xlink" viewBox="0 0 138 138">
  <defs>
    <symbol id="encoder-dark" viewBox="0 0 136.46 135.85">
      <g id="encoder-dark-2" data-name="encoder-dark">
        <path d="M70.6,3l3.99-1.84c5.07-2.34,11.07-1.06,14.74,3.13l2.9,3.31c1.09,1.24,2.67,1.95,4.32,1.93l4.4-.06c5.58-.08,10.54,3.53,12.19,8.86l1.3,4.2c.49,1.58,1.65,2.87,3.17,3.52l4.04,1.73c5.13,2.2,8.19,7.51,7.54,13.05l-.52,4.37c-.2,1.64.34,3.29,1.46,4.5l2.99,3.23c3.79,4.09,4.43,10.2,1.58,14.99l-2.25,3.78c-.85,1.42-1.03,3.14-.49,4.71l1.42,4.16c1.8,5.28-.1,11.12-4.66,14.33l-3.59,2.54c-1.35.95-2.22,2.45-2.37,4.1l-.4,4.38c-.51,5.56-4.61,10.11-10.08,11.2l-4.31.86c-1.62.32-3.02,1.34-3.83,2.78l-2.15,3.84c-2.72,4.87-8.33,7.36-13.77,6.13l-4.29-.97c-1.61-.37-3.31,0-4.63.98l-3.52,2.63c-4.47,3.34-10.6,3.34-15.07,0l-3.52-2.63c-1.32-.99-3.02-1.35-4.63-.98l-4.29.97c-5.44,1.23-11.04-1.26-13.77-6.13l-2.15-3.84c-.81-1.44-2.21-2.46-3.83-2.78l-4.31-.86c-5.47-1.09-9.58-5.64-10.08-11.2l-.4-4.38c-.15-1.65-1.02-3.15-2.37-4.1l-3.59-2.54c-4.56-3.22-6.45-9.05-4.66-14.33l1.42-4.16c.53-1.57.35-3.29-.49-4.71l-2.25-3.78c-2.85-4.79-2.21-10.89,1.58-14.99l2.99-3.23c1.12-1.21,1.66-2.86,1.46-4.5l-.52-4.37c-.66-5.54,2.41-10.85,7.54-13.05l4.04-1.73c1.52-.65,2.68-1.94,3.17-3.52l1.3-4.2c1.65-5.33,6.61-8.93,12.19-8.86l4.4.06c1.65.02,3.23-.68,4.32-1.93l2.9-3.31C50.81.1,56.81-1.18,61.87,1.16l3.99,1.84c1.5.69,3.23.69,4.73,0Z" fill="#323232" fill-rule="evenodd"/>
        <path d="M70.6,3l3.99-1.84c5.07-2.34,11.07-1.06,14.74,3.13l2.9,3.31c1.09,1.24,2.67,1.95,4.32,1.93l4.4-.06c5.58-.08,10.54,3.53,12.19,8.86l1.3,4.2c.49,1.58,1.65,2.87,3.17,3.52l4.04,1.73c5.13,2.2,8.19,7.51,7.54,13.05l-.52,4.37c-.2,1.64.34,3.29,1.46,4.5l2.99,3.23c3.79,4.09,4.43,10.2,1.58,14.99l-2.25,3.78c-.85,1.42-1.03,3.14-.49,4.71l1.42,4.16c1.8,5.28-.1,11.12-4.66,14.33l-3.59,2.54c-1.35.95-2.22,2.45-2.37,4.1l-.4,4.38c-.51,5.56-4.61,10.11-10.08,11.2l-4.31.86c-1.62.32-3.02,1.34-3.83,2.78l-2.15,3.84c-2.72,4.87-8.33,7.36-13.77,6.13l-4.29-.97c-1.61-.37-3.31,0-4.63.98l-3.52,2.63c-4.47,3.34-10.6,3.34-15.07,0l-3.52-2.63c-1.32-.99-3.02-1.35-4.63-.98l-4.29.97c-5.44,1.23-11.04-1.26-13.77-6.13l-2.15-3.84c-.81-1.44-2.21-2.46-3.83-2.78l-4.31-.86c-5.47-1.09-9.58-5.64-10.08-11.2l-.4-4.38c-.15-1.65-1.02-3.15-2.37-4.1l-3.59-2.54c-4.56-3.22-6.45-9.05-4.66-14.33l1.42-4.16c.53-1.57.35-3.29-.49-4.71l-2.25-3.78c-2.85-4.79-2.21-10.89,1.58-14.99l2.99-3.23c1.12-1.21,1.66-2.86,1.46-4.5l-.52-4.37c-.66-5.54,2.41-10.85,7.54-13.05l4.04-1.73c1.52-.65,2.68-1.94,3.17-3.52l1.3-4.2c1.65-5.33,6.61-8.93,12.19-8.86l4.4.06c1.65.02,3.23-.68,4.32-1.93l2.9-3.31C50.81.1,56.81-1.18,61.87,1.16l3.99,1.84c1.5.69,3.23.69,4.73,0Z" fill="#999" fill-rule="evenodd" opacity=".3"/>
      </g>
    </symbol>
  </defs>
  <g id="encoders-dark">
    <g id="encoder-6-dark">
      <use width="136.46" height="135.85" transform="translate(.77 1.68)" xlink:href="#encoder-dark"/>
      <path d="M70.1,105.3c-3.9,0-7.29-.69-10.17-2.08-2.88-1.38-5.28-3.28-7.18-5.7-1.9-2.42-3.31-5.19-4.22-8.33-.92-3.13-1.38-6.45-1.38-9.95,0-7.27,1.38-14.07,4.15-20.4,2.77-6.33,6.8-11.77,12.1-16.3s11.75-7.75,19.35-9.65v6.35c-4.37,1.2-8.41,3.12-12.12,5.75s-6.88,5.86-9.5,9.67c-2.62,3.82-4.44,8.12-5.47,12.92,1.57-2.07,3.75-3.72,6.55-4.95,2.8-1.23,5.9-1.85,9.3-1.85,4.13,0,7.8.97,11,2.92,3.2,1.95,5.71,4.58,7.53,7.88,1.82,3.3,2.72,6.98,2.72,11.05,0,4.37-.97,8.26-2.92,11.67-1.95,3.42-4.63,6.1-8.05,8.05-3.42,1.95-7.31,2.92-11.67,2.92ZM70.05,98.65c3.1,0,5.82-.66,8.17-1.97,2.35-1.32,4.17-3.14,5.47-5.48,1.3-2.33,1.95-5.02,1.95-8.05,0-4.7-1.42-8.5-4.25-11.4-2.83-2.9-6.62-4.35-11.35-4.35-3.07,0-5.78.66-8.12,1.98-2.35,1.32-4.2,3.14-5.55,5.47-1.35,2.33-2.02,5.03-2.02,8.1s.67,5.78,2.02,8.15c1.35,2.37,3.21,4.22,5.58,5.55,2.37,1.33,5.07,2,8.1,2Z" fill="#fff"/>
    </g>
  </g>
</svg>