<?xml version="1.0" encoding="UTF-8"?>
<svg id="track8-keys" xmlns="http://www.w3.org/2000/svg" width="138" height="138" xmlns:xlink="http://www.w3.org/1999/xlink" viewBox="0 0 138 138">
  <defs>
    <symbol id="encoder-dark" viewBox="0 0 136.46 135.85">
      <g id="encoder-dark-2" data-name="encoder-dark">
        <path d="M70.6,3l3.99-1.84c5.07-2.34,11.07-1.06,14.74,3.13l2.9,3.31c1.09,1.24,2.67,1.95,4.32,1.93l4.4-.06c5.58-.08,10.54,3.53,12.19,8.86l1.3,4.2c.49,1.58,1.65,2.87,3.17,3.52l4.04,1.73c5.13,2.2,8.19,7.51,7.54,13.05l-.52,4.37c-.2,1.64.34,3.29,1.46,4.5l2.99,3.23c3.79,4.09,4.43,10.2,1.58,14.99l-2.25,3.78c-.85,1.42-1.03,3.14-.49,4.71l1.42,4.16c1.8,5.28-.1,11.12-4.66,14.33l-3.59,2.54c-1.35.95-2.22,2.45-2.37,4.1l-.4,4.38c-.51,5.56-4.61,10.11-10.08,11.2l-4.31.86c-1.62.32-3.02,1.34-3.83,2.78l-2.15,3.84c-2.72,4.87-8.33,7.36-13.77,6.13l-4.29-.97c-1.61-.37-3.31,0-4.63.98l-3.52,2.63c-4.47,3.34-10.6,3.34-15.07,0l-3.52-2.63c-1.32-.99-3.02-1.35-4.63-.98l-4.29.97c-5.44,1.23-11.04-1.26-13.77-6.13l-2.15-3.84c-.81-1.44-2.21-2.46-3.83-2.78l-4.31-.86c-5.47-1.09-9.58-5.64-10.08-11.2l-.4-4.38c-.15-1.65-1.02-3.15-2.37-4.1l-3.59-2.54c-4.56-3.22-6.45-9.05-4.66-14.33l1.42-4.16c.53-1.57.35-3.29-.49-4.71l-2.25-3.78c-2.85-4.79-2.21-10.89,1.58-14.99l2.99-3.23c1.12-1.21,1.66-2.86,1.46-4.5l-.52-4.37c-.66-5.54,2.41-10.85,7.54-13.05l4.04-1.73c1.52-.65,2.68-1.94,3.17-3.52l1.3-4.2c1.65-5.33,6.61-8.93,12.19-8.86l4.4.06c1.65.02,3.23-.68,4.32-1.93l2.9-3.31C50.81.1,56.81-1.18,61.87,1.16l3.99,1.84c1.5.69,3.23.69,4.73,0Z" fill="#323232" fill-rule="evenodd"/>
        <path d="M70.6,3l3.99-1.84c5.07-2.34,11.07-1.06,14.74,3.13l2.9,3.31c1.09,1.24,2.67,1.95,4.32,1.93l4.4-.06c5.58-.08,10.54,3.53,12.19,8.86l1.3,4.2c.49,1.58,1.65,2.87,3.17,3.52l4.04,1.73c5.13,2.2,8.19,7.51,7.54,13.05l-.52,4.37c-.2,1.64.34,3.29,1.46,4.5l2.99,3.23c3.79,4.09,4.43,10.2,1.58,14.99l-2.25,3.78c-.85,1.42-1.03,3.14-.49,4.71l1.42,4.16c1.8,5.28-.1,11.12-4.66,14.33l-3.59,2.54c-1.35.95-2.22,2.45-2.37,4.1l-.4,4.38c-.51,5.56-4.61,10.11-10.08,11.2l-4.31.86c-1.62.32-3.02,1.34-3.83,2.78l-2.15,3.84c-2.72,4.87-8.33,7.36-13.77,6.13l-4.29-.97c-1.61-.37-3.31,0-4.63.98l-3.52,2.63c-4.47,3.34-10.6,3.34-15.07,0l-3.52-2.63c-1.32-.99-3.02-1.35-4.63-.98l-4.29.97c-5.44,1.23-11.04-1.26-13.77-6.13l-2.15-3.84c-.81-1.44-2.21-2.46-3.83-2.78l-4.31-.86c-5.47-1.09-9.58-5.64-10.08-11.2l-.4-4.38c-.15-1.65-1.02-3.15-2.37-4.1l-3.59-2.54c-4.56-3.22-6.45-9.05-4.66-14.33l1.42-4.16c.53-1.57.35-3.29-.49-4.71l-2.25-3.78c-2.85-4.79-2.21-10.89,1.58-14.99l2.99-3.23c1.12-1.21,1.66-2.86,1.46-4.5l-.52-4.37c-.66-5.54,2.41-10.85,7.54-13.05l4.04-1.73c1.52-.65,2.68-1.94,3.17-3.52l1.3-4.2c1.65-5.33,6.61-8.93,12.19-8.86l4.4.06c1.65.02,3.23-.68,4.32-1.93l2.9-3.31C50.81.1,56.81-1.18,61.87,1.16l3.99,1.84c1.5.69,3.23.69,4.73,0Z" fill="#999" fill-rule="evenodd" opacity=".3"/>
      </g>
    </symbol>
  </defs>
  <g id="encoders-dark">
    <g id="encoder-8-dark">
      <use width="136.46" height="135.85" transform="translate(.77 1.68)" xlink:href="#encoder-dark"/>
      <path d="M69.97,105.3c-4.43,0-8.37-.92-11.8-2.75-3.43-1.83-6.12-4.33-8.08-7.5s-2.92-6.73-2.92-10.7c0-4.5,1.19-8.41,3.58-11.72,2.38-3.32,5.47-5.68,9.27-7.08-2.07-.87-3.83-2.05-5.27-3.55-1.45-1.5-2.55-3.2-3.3-5.1-.75-1.9-1.12-3.92-1.12-6.05,0-3.33.84-6.35,2.53-9.05,1.68-2.7,4-4.86,6.95-6.48,2.95-1.62,6.34-2.42,10.17-2.42s7.23.81,10.2,2.42c2.97,1.62,5.29,3.78,6.97,6.48,1.68,2.7,2.53,5.72,2.53,9.05,0,2.13-.37,4.14-1.1,6.03s-1.82,3.57-3.27,5.07-3.28,2.7-5.48,3.6c3.93,1.43,7.08,3.8,9.43,7.1,2.35,3.3,3.52,7.2,3.52,11.7,0,3.97-.97,7.53-2.92,10.7s-4.64,5.67-8.08,7.5c-3.43,1.83-7.37,2.75-11.8,2.75ZM69.97,98.65c2.93,0,5.58-.6,7.92-1.8,2.35-1.2,4.2-2.91,5.55-5.12,1.35-2.22,2.03-4.84,2.03-7.88,0-2.73-.65-5.26-1.95-7.58-1.3-2.32-3.12-4.17-5.45-5.55-2.33-1.38-5.03-2.08-8.1-2.08s-5.77.69-8.1,2.08c-2.33,1.38-4.14,3.23-5.43,5.55-1.28,2.32-1.92,4.84-1.92,7.58,0,3.03.67,5.66,2,7.88s3.17,3.92,5.5,5.12,4.98,1.8,7.95,1.8ZM69.97,62.75c3.77,0,6.8-1.09,9.1-3.28,2.3-2.18,3.45-4.91,3.45-8.17,0-3.63-1.19-6.51-3.58-8.62-2.38-2.12-5.38-3.17-8.97-3.17s-6.54,1.06-8.92,3.17c-2.38,2.12-3.58,4.99-3.58,8.62,0,3.27,1.13,5.99,3.4,8.17,2.27,2.18,5.3,3.28,9.1,3.28Z" fill="#fff"/>
    </g>
  </g>
</svg>