<?xml version="1.0" encoding="UTF-8"?>
<svg id="track8-keys" xmlns="http://www.w3.org/2000/svg" width="138" height="138" xmlns:xlink="http://www.w3.org/1999/xlink" viewBox="0 0 138 138">
  <defs>
    <symbol id="cushion-grey" viewBox="0 0 137.5 137.5">
      <g id="cushion-grey-2" data-name="cushion-grey">
        <path d="M68.75,4.7c16.69,0,33.62.8,50.3,2.36,5.52.54,10.85,5.87,11.39,11.37,3.14,33.39,3.14,67.25,0,100.62-.54,5.52-5.87,10.85-11.37,11.39-16.7,1.57-33.63,2.36-50.32,2.36s-33.62-.8-50.3-2.36c-5.52-.54-10.85-5.87-11.39-11.37-3.14-33.39-3.14-67.25,0-100.62.54-5.52,5.87-10.85,11.37-11.39,16.7-1.57,33.63-2.36,50.32-2.36M68.75,0c-16.92,0-33.84.79-50.76,2.38-7.75.76-14.84,7.86-15.61,15.61C-.79,51.83-.79,85.67,2.38,119.51c.76,7.75,7.86,14.84,15.61,15.61,16.92,1.59,33.84,2.38,50.76,2.38s33.84-.79,50.76-2.38c7.75-.76,14.84-7.86,15.61-15.61,3.18-33.84,3.18-67.68,0-101.52-.76-7.75-7.86-14.84-15.61-15.61C102.59.79,85.67,0,68.75,0h0Z" fill="#999"/>
      </g>
    </symbol>
  </defs>
  <g id="keypad-grey">
    <g id="audio-midi-browser-grey">
      <g id="document">
        <path id="path24288" d="M46.15,41.04h37.19c.09,0,.17.04.23.1l10.55,10.55h-9.37c-.7,0-1.28-.57-1.28-1.28v-9.37l10.65,10.65v43.92c0,.73-.6,1.33-1.33,1.33h-46.67c-.69,0-1.25-.56-1.25-1.25v-53.38c0-.7.57-1.28,1.28-1.28Z" fill="none" stroke="#999" stroke-linecap="round" stroke-linejoin="round" stroke-width="4.72"/>
        <path id="path24290" d="M56.86,61.01h25.29" fill="none" stroke="#999" stroke-linecap="round" stroke-linejoin="round" stroke-width="4.72"/>
        <path id="path24292" d="M56.86,71.66h25.29" fill="none" stroke="#999" stroke-linecap="round" stroke-linejoin="round" stroke-width="4.72"/>
        <path id="path24294" d="M56.86,82.31h25.29" fill="none" stroke="#999" stroke-linecap="round" stroke-linejoin="round" stroke-width="4.72"/>
      </g>
      <use width="137.5" height="137.5" transform="translate(0 0) scale(1.01)" xlink:href="#cushion-grey"/>
    </g>
  </g>
</svg>