<?xml version="1.0" encoding="UTF-8"?>
<svg id="track8-keys" xmlns="http://www.w3.org/2000/svg" width="138" height="138" viewBox="0 0 138 138">
  <g id="track-keys-dark">
    <g id="track-key-1-dark">
      <g id="rect-background-dark">
        <path d="M18.01,2.4C52-.8,86-.8,119.99,2.4c7.75.76,14.84,7.86,15.61,15.61,3.2,34,3.2,67.99,0,101.99-.76,7.75-7.86,14.84-15.61,15.61-34,3.2-67.99,3.2-101.99,0-7.75-.76-14.84-7.86-15.61-15.61-3.2-34-3.2-67.99,0-101.99.76-7.75,7.86-14.84,15.61-15.61Z" fill="#323232" fill-rule="evenodd"/>
      </g>
      <path d="M68.33,104.1v-56.6h-11.75v-4.75c2.53,0,4.7-.24,6.5-.73,1.8-.48,3.29-1.35,4.47-2.6s2.11-3.03,2.78-5.33h5v70h-7Z" fill="#fff"/>
    </g>
  </g>
</svg>