<?xml version="1.0" encoding="UTF-8"?>
<svg id="track8-keys" xmlns="http://www.w3.org/2000/svg" width="138" height="138" viewBox="0 0 138 138">
  <g id="track-key-7-grey">
    <path d="M133,5v128H5V5h128M138,0H0v138h138V0h0Z" fill="#999"/>
    <path d="M61.9,104.1c.07-7.6.78-14.93,2.12-22,1.35-7.07,3.59-14.01,6.73-20.83,3.13-6.82,7.38-13.67,12.75-20.58h-35.2v-6.6h42.9v6.3c-4.6,5.3-8.34,10.8-11.22,16.5-2.88,5.7-5.11,11.37-6.67,17-1.57,5.63-2.64,11.02-3.23,16.15-.58,5.13-.89,9.82-.92,14.05h-7.25Z" fill="#999"/>
  </g>
</svg>