<?xml version="1.0" encoding="UTF-8"?>
<svg id="track8-keys" xmlns="http://www.w3.org/2000/svg" width="138" height="138" viewBox="0 0 138 138">
  <g id="keypad-light">
    <g id="cut-area-light">
      <g id="scissor">
        <path id="path24260" d="M84.12,94.62l-29.04-53.24s-11.66,4.59-6.05,14.52c6.1,10.79,14.52,2.42,14.52,2.42" fill="none" stroke="#323232" stroke-linecap="round" stroke-linejoin="round" stroke-width="4.72"/>
        <path id="path24262" d="M53.87,94.62l29.04-53.24s11.66,4.59,6.05,14.52c-6.1,10.79-14.52,2.42-14.52,2.42" fill="none" stroke="#323232" stroke-linecap="round" stroke-linejoin="round" stroke-width="4.72"/>
      </g>
      <g id="cushion-outline">
        <g id="rect24298">
          <path d="M69,4.7c16.77,0,33.78.8,50.53,2.37,5.52.54,10.85,5.87,11.39,11.37,3.15,33.55,3.15,67.56,0,101.09-.54,5.52-5.87,10.85-11.37,11.39-16.77,1.58-33.78,2.38-50.55,2.38s-33.78-.8-50.53-2.37c-5.52-.54-10.85-5.87-11.39-11.37-3.15-33.55-3.15-67.56,0-101.09.54-5.52,5.87-10.85,11.37-11.39,16.77-1.58,33.78-2.38,50.55-2.38M69,0C52,0,35,.8,18.01,2.4c-7.75.76-14.85,7.86-15.61,15.61C-.8,52-.8,86,2.4,119.99c.76,7.75,7.86,14.84,15.61,15.61,17,1.6,34,2.4,50.99,2.4s34-.8,50.99-2.4c7.75-.76,14.85-7.86,15.61-15.61,3.2-34,3.2-67.99,0-101.99-.76-7.75-7.86-14.84-15.61-15.61C103,.8,86,0,69,0h0Z" fill="#323232"/>
        </g>
      </g>
    </g>
  </g>
</svg>