<?xml version="1.0" encoding="UTF-8"?>
<svg id="track8-keys" xmlns="http://www.w3.org/2000/svg" width="138" height="138" xmlns:xlink="http://www.w3.org/1999/xlink" viewBox="0 0 138 138">
  <defs>
    <symbol id="cushion-grey" viewBox="0 0 137.5 137.5">
      <g id="cushion-grey-2" data-name="cushion-grey">
        <path d="M68.75,4.7c16.69,0,33.62.8,50.3,2.36,5.52.54,10.85,5.87,11.39,11.37,3.14,33.39,3.14,67.25,0,100.62-.54,5.52-5.87,10.85-11.37,11.39-16.7,1.57-33.63,2.36-50.32,2.36s-33.62-.8-50.3-2.36c-5.52-.54-10.85-5.87-11.39-11.37-3.14-33.39-3.14-67.25,0-100.62.54-5.52,5.87-10.85,11.37-11.39,16.7-1.57,33.63-2.36,50.32-2.36M68.75,0c-16.92,0-33.84.79-50.76,2.38-7.75.76-14.84,7.86-15.61,15.61C-.79,51.83-.79,85.67,2.38,119.51c.76,7.75,7.86,14.84,15.61,15.61,16.92,1.59,33.84,2.38,50.76,2.38s33.84-.79,50.76-2.38c7.75-.76,14.84-7.86,15.61-15.61,3.18-33.84,3.18-67.68,0-101.52-.76-7.75-7.86-14.84-15.61-15.61C102.59.79,85.67,0,68.75,0h0Z" fill="#999"/>
      </g>
    </symbol>
  </defs>
  <g id="keypad-grey">
    <g id="audio-overview-grey">
      <use width="137.5" height="137.5" transform="translate(0 0) scale(1.01)" xlink:href="#cushion-grey"/>
      <g id="waveform">
        <g>
          <path id="path24300" d="M34,63v12" fill="#fff" stroke="#323232" stroke-linecap="round" stroke-miterlimit="3.1" stroke-width="4"/>
          <path id="path24302" d="M41,58v22" fill="#fff" stroke="#323232" stroke-linecap="round" stroke-miterlimit="3.1" stroke-width="4"/>
          <path id="path24304" d="M48,53.2v31.75" fill="#fff" stroke="#323232" stroke-linecap="round" stroke-miterlimit="3.1" stroke-width="4"/>
          <path id="path24306" d="M62,63v12" fill="#fff" stroke="#323232" stroke-linecap="round" stroke-miterlimit="3.1" stroke-width="4"/>
          <path id="path24308" d="M76,53v32" fill="#fff" stroke="#323232" stroke-linecap="round" stroke-miterlimit="3.1" stroke-width="4"/>
          <path id="path24310" d="M83,47v44" fill="none" fill-rule="evenodd" stroke="#999" stroke-miterlimit="3.78" stroke-width="4"/>
          <path id="path24312" d="M55,58v22" fill="#fff" stroke="#323232" stroke-linecap="round" stroke-miterlimit="3.1" stroke-width="4"/>
          <path id="path24314" d="M69,57.99v22" fill="#fff" stroke="#323232" stroke-linecap="round" stroke-miterlimit="3.1" stroke-width="4"/>
          <path id="path24316" d="M90,53v32" fill="none" fill-rule="evenodd" stroke="#999" stroke-miterlimit="3.78" stroke-width="4"/>
          <path id="path24318" d="M97,59v20" fill="#fff" stroke="#323232" stroke-linecap="round" stroke-miterlimit="3.1" stroke-width="4"/>
          <path id="path24320" d="M104,63v12" fill="#fff" stroke="#323232" stroke-linecap="round" stroke-miterlimit="3.1" stroke-width="4"/>
          <path id="path24322" d="M27,68v2" fill="#fff" stroke="#323232" stroke-linecap="round" stroke-miterlimit="3.1" stroke-width="4"/>
          <path id="path24324" d="M111,67.92v2.08" fill="#fff" stroke="#323232" stroke-linecap="round" stroke-miterlimit="3.1" stroke-width="4"/>
        </g>
        <g>
          <path id="path24300-2" data-name="path24300" d="M34,63v12" fill="none" stroke="#999" stroke-linecap="round" stroke-linejoin="round" stroke-width="4"/>
          <path id="path24302-2" data-name="path24302" d="M41,58v22" fill="none" stroke="#999" stroke-linecap="round" stroke-linejoin="round" stroke-width="4"/>
          <path id="path24304-2" data-name="path24304" d="M48,53.2v31.75" fill="none" stroke="#999" stroke-linecap="round" stroke-linejoin="round" stroke-width="4"/>
          <path id="path24306-2" data-name="path24306" d="M62,63v12" fill="none" stroke="#999" stroke-linecap="round" stroke-linejoin="round" stroke-width="4"/>
          <path id="path24308-2" data-name="path24308" d="M76,53v32" fill="none" stroke="#999" stroke-linecap="round" stroke-linejoin="round" stroke-width="4"/>
          <path id="path24310-2" data-name="path24310" d="M83,47v44" fill="none" stroke="#999" stroke-linecap="round" stroke-linejoin="round" stroke-width="4"/>
          <path id="path24312-2" data-name="path24312" d="M55,58v22" fill="none" stroke="#999" stroke-linecap="round" stroke-linejoin="round" stroke-width="4"/>
          <path id="path24314-2" data-name="path24314" d="M69,57.99v22" fill="none" stroke="#999" stroke-linecap="round" stroke-linejoin="round" stroke-width="4"/>
          <path id="path24316-2" data-name="path24316" d="M90,53v32" fill="none" stroke="#999" stroke-linecap="round" stroke-linejoin="round" stroke-width="4"/>
          <path id="path24318-2" data-name="path24318" d="M97,59v20" fill="none" stroke="#999" stroke-linecap="round" stroke-linejoin="round" stroke-width="4"/>
          <path id="path24320-2" data-name="path24320" d="M104,63v12" fill="none" stroke="#999" stroke-linecap="round" stroke-linejoin="round" stroke-width="4"/>
          <path id="path24322-2" data-name="path24322" d="M27,68v2" fill="none" stroke="#999" stroke-linecap="round" stroke-linejoin="round" stroke-width="4"/>
          <path id="path24324-2" data-name="path24324" d="M111,67.92v2.08" fill="none" stroke="#999" stroke-linecap="round" stroke-linejoin="round" stroke-width="4"/>
        </g>
      </g>
    </g>
  </g>
</svg>