<?xml version="1.0" encoding="UTF-8"?>
<svg id="track8-keys" xmlns="http://www.w3.org/2000/svg" width="138" height="138" viewBox="0 0 138 138">
  <g id="keypad-light">
    <g id="set-punch-in-light">
      <g id="icon-punch-in">
        <path id="path24348" d="M70.21,42.38h-24.2c-3.34,0-6.05,2.71-6.05,6.05v41.14c0,3.34,2.71,6.05,6.05,6.05h24.2" fill="none" stroke="#323232" stroke-linecap="round" stroke-linejoin="round" stroke-width="4.72"/>
        <path id="path24350" d="M49.64,69h46.43c.37,0,.46-.52.11-.64l-23.66-8.64c-.53-.19-1.09.2-1.09.76v17.04c0,.56.56.95,1.09.76l25.53-9.28" fill="#323232" stroke="#323232" stroke-linecap="round" stroke-linejoin="round" stroke-width="4.72"/>
      </g>
      <g id="cushion-outline">
        <g id="rect24298">
          <path d="M69,4.7c16.77,0,33.78.8,50.53,2.37,5.52.54,10.85,5.87,11.39,11.37,3.15,33.55,3.15,67.56,0,101.09-.54,5.52-5.87,10.85-11.37,11.39-16.77,1.58-33.78,2.38-50.55,2.38s-33.78-.8-50.53-2.37c-5.52-.54-10.85-5.87-11.39-11.37-3.15-33.55-3.15-67.56,0-101.09.54-5.52,5.87-10.85,11.37-11.39,16.77-1.58,33.78-2.38,50.55-2.38M69,0C52,0,35,.8,18.01,2.4c-7.75.76-14.84,7.86-15.61,15.61C-.8,52-.8,86,2.4,119.99c.76,7.75,7.86,14.84,15.61,15.61,17,1.6,34,2.4,50.99,2.4s34-.8,50.99-2.4c7.75-.76,14.85-7.86,15.61-15.61,3.2-34,3.2-67.99,0-101.99-.76-7.75-7.86-14.84-15.61-15.61C103,.8,86,0,69,0h0Z" fill="#323232"/>
        </g>
      </g>
    </g>
  </g>
</svg>