<?xml version="1.0" encoding="UTF-8"?>
<svg id="track8-keys" xmlns="http://www.w3.org/2000/svg" width="138" height="138" xmlns:xlink="http://www.w3.org/1999/xlink" viewBox="0 0 138 138">
  <defs>
    <symbol id="cushion-grey" viewBox="0 0 137.5 137.5">
      <g id="cushion-grey-2" data-name="cushion-grey">
        <path d="M68.75,4.7c16.69,0,33.62.8,50.3,2.36,5.52.54,10.85,5.87,11.39,11.37,3.14,33.39,3.14,67.25,0,100.62-.54,5.52-5.87,10.85-11.37,11.39-16.7,1.57-33.63,2.36-50.32,2.36s-33.62-.8-50.3-2.36c-5.52-.54-10.85-5.87-11.39-11.37-3.14-33.39-3.14-67.25,0-100.62.54-5.52,5.87-10.85,11.37-11.39,16.7-1.57,33.63-2.36,50.32-2.36M68.75,0c-16.92,0-33.84.79-50.76,2.38-7.75.76-14.84,7.86-15.61,15.61C-.79,51.83-.79,85.67,2.38,119.51c.76,7.75,7.86,14.84,15.61,15.61,16.92,1.59,33.84,2.38,50.76,2.38s33.84-.79,50.76-2.38c7.75-.76,14.84-7.86,15.61-15.61,3.18-33.84,3.18-67.68,0-101.52-.76-7.75-7.86-14.84-15.61-15.61C102.59.79,85.67,0,68.75,0h0Z" fill="#999"/>
      </g>
    </symbol>
  </defs>
  <g id="keypad-grey">
    <g id="shift-grey">
      <path id="path24230" d="M38.58,63.19l29.83-24.86c.45-.38,1.1-.38,1.55,0l29.64,24.7c.52.43.21,1.27-.46,1.27h-15.35c-.72,0-1.3.58-1.3,1.3v29.42c0,.67-.55,1.22-1.22,1.22h-24.21c-.66,0-1.19-.53-1.19-1.19v-29.5c0-.69-.56-1.25-1.25-1.25h-15.64c-.59,0-.86-.74-.4-1.12Z" fill="none" stroke="#999" stroke-linecap="round" stroke-linejoin="round" stroke-width="4.72"/>
      <use width="137.5" height="137.5" transform="translate(0 0) scale(1.01)" xlink:href="#cushion-grey"/>
    </g>
  </g>
</svg>