<?xml version="1.0" encoding="UTF-8"?>
<svg id="track8-keys" xmlns="http://www.w3.org/2000/svg" width="138" height="138" xmlns:xlink="http://www.w3.org/1999/xlink" viewBox="0 0 138 138">
  <defs>
    <symbol id="encoder-dark" viewBox="0 0 136.46 135.85">
      <g id="encoder-dark-2" data-name="encoder-dark">
        <path d="M70.6,3l3.99-1.84c5.07-2.34,11.07-1.06,14.74,3.13l2.9,3.31c1.09,1.24,2.67,1.95,4.32,1.93l4.4-.06c5.58-.08,10.54,3.53,12.19,8.86l1.3,4.2c.49,1.58,1.65,2.87,3.17,3.52l4.04,1.73c5.13,2.2,8.19,7.51,7.54,13.05l-.52,4.37c-.2,1.64.34,3.29,1.46,4.5l2.99,3.23c3.79,4.09,4.43,10.2,1.58,14.99l-2.25,3.78c-.85,1.42-1.03,3.14-.49,4.71l1.42,4.16c1.8,5.28-.1,11.12-4.66,14.33l-3.59,2.54c-1.35.95-2.22,2.45-2.37,4.1l-.4,4.38c-.51,5.56-4.61,10.11-10.08,11.2l-4.31.86c-1.62.32-3.02,1.34-3.83,2.78l-2.15,3.84c-2.72,4.87-8.33,7.36-13.77,6.13l-4.29-.97c-1.61-.37-3.31,0-4.63.98l-3.52,2.63c-4.47,3.34-10.6,3.34-15.07,0l-3.52-2.63c-1.32-.99-3.02-1.35-4.63-.98l-4.29.97c-5.44,1.23-11.04-1.26-13.77-6.13l-2.15-3.84c-.81-1.44-2.21-2.46-3.83-2.78l-4.31-.86c-5.47-1.09-9.58-5.64-10.08-11.2l-.4-4.38c-.15-1.65-1.02-3.15-2.37-4.1l-3.59-2.54c-4.56-3.22-6.45-9.05-4.66-14.33l1.42-4.16c.53-1.57.35-3.29-.49-4.71l-2.25-3.78c-2.85-4.79-2.21-10.89,1.58-14.99l2.99-3.23c1.12-1.21,1.66-2.86,1.46-4.5l-.52-4.37c-.66-5.54,2.41-10.85,7.54-13.05l4.04-1.73c1.52-.65,2.68-1.94,3.17-3.52l1.3-4.2c1.65-5.33,6.61-8.93,12.19-8.86l4.4.06c1.65.02,3.23-.68,4.32-1.93l2.9-3.31C50.81.1,56.81-1.18,61.87,1.16l3.99,1.84c1.5.69,3.23.69,4.73,0Z" fill="#323232" fill-rule="evenodd"/>
        <path d="M70.6,3l3.99-1.84c5.07-2.34,11.07-1.06,14.74,3.13l2.9,3.31c1.09,1.24,2.67,1.95,4.32,1.93l4.4-.06c5.58-.08,10.54,3.53,12.19,8.86l1.3,4.2c.49,1.58,1.65,2.87,3.17,3.52l4.04,1.73c5.13,2.2,8.19,7.51,7.54,13.05l-.52,4.37c-.2,1.64.34,3.29,1.46,4.5l2.99,3.23c3.79,4.09,4.43,10.2,1.58,14.99l-2.25,3.78c-.85,1.42-1.03,3.14-.49,4.71l1.42,4.16c1.8,5.28-.1,11.12-4.66,14.33l-3.59,2.54c-1.35.95-2.22,2.45-2.37,4.1l-.4,4.38c-.51,5.56-4.61,10.11-10.08,11.2l-4.31.86c-1.62.32-3.02,1.34-3.83,2.78l-2.15,3.84c-2.72,4.87-8.33,7.36-13.77,6.13l-4.29-.97c-1.61-.37-3.31,0-4.63.98l-3.52,2.63c-4.47,3.34-10.6,3.34-15.07,0l-3.52-2.63c-1.32-.99-3.02-1.35-4.63-.98l-4.29.97c-5.44,1.23-11.04-1.26-13.77-6.13l-2.15-3.84c-.81-1.44-2.21-2.46-3.83-2.78l-4.31-.86c-5.47-1.09-9.58-5.64-10.08-11.2l-.4-4.38c-.15-1.65-1.02-3.15-2.37-4.1l-3.59-2.54c-4.56-3.22-6.45-9.05-4.66-14.33l1.42-4.16c.53-1.57.35-3.29-.49-4.71l-2.25-3.78c-2.85-4.79-2.21-10.89,1.58-14.99l2.99-3.23c1.12-1.21,1.66-2.86,1.46-4.5l-.52-4.37c-.66-5.54,2.41-10.85,7.54-13.05l4.04-1.73c1.52-.65,2.68-1.94,3.17-3.52l1.3-4.2c1.65-5.33,6.61-8.93,12.19-8.86l4.4.06c1.65.02,3.23-.68,4.32-1.93l2.9-3.31C50.81.1,56.81-1.18,61.87,1.16l3.99,1.84c1.5.69,3.23.69,4.73,0Z" fill="#999" fill-rule="evenodd" opacity=".3"/>
      </g>
    </symbol>
  </defs>
  <g id="encoders-dark">
    <g id="encoder-2-dark">
      <use width="136.46" height="135.85" transform="translate(.77 1.68)" xlink:href="#encoder-dark"/>
      <path d="M47.13,104.1c0-4.4.59-8.23,1.77-11.5,1.18-3.27,2.8-6.15,4.85-8.65s4.4-4.73,7.05-6.7,5.39-3.8,8.22-5.5c2.77-1.7,5.36-3.45,7.78-5.25,2.42-1.8,4.37-3.83,5.85-6.08s2.23-4.88,2.23-7.88c0-3.73-1.3-6.84-3.9-9.33-2.6-2.48-6.15-3.72-10.65-3.72s-7.86,1.02-10.38,3.07c-2.52,2.05-4.29,4.76-5.33,8.12l-6.3-2.85c1.3-4.3,3.9-7.87,7.8-10.7,3.9-2.83,8.7-4.25,14.4-4.25,4.5,0,8.37.83,11.6,2.5,3.23,1.67,5.71,3.98,7.42,6.95s2.58,6.4,2.58,10.3c0,4.23-.93,7.83-2.8,10.78-1.87,2.95-4.32,5.55-7.35,7.8s-6.27,4.39-9.7,6.42c-3.1,1.87-5.86,3.75-8.27,5.65-2.42,1.9-4.38,3.97-5.9,6.2s-2.47,4.82-2.88,7.75h37.5v6.85h-45.6Z" fill="#fff"/>
    </g>
  </g>
</svg>