<?xml version="1.0" encoding="UTF-8"?>
<svg id="track8-keys" xmlns="http://www.w3.org/2000/svg" width="138" height="138" viewBox="0 0 138 138">
  <g id="keypad-grey">
    <g id="arm-record-grey">
      <g id="cushion-grey">
        <path d="M69.5,138.53c-17.06,0-34.36-.82-51.42-2.42-7.49-.74-14.45-7.7-15.19-15.19C-.32,86.8-.32,52.2,2.89,18.08c.74-7.49,7.7-14.45,15.19-15.19C35.14,1.28,52.44.47,69.5.47s34.36.82,51.42,2.42c7.49.74,14.45,7.69,15.19,15.19,3.21,34.12,3.21,68.72,0,102.84-.74,7.49-7.69,14.45-15.19,15.19-17.06,1.61-34.36,2.42-51.42,2.42Z" fill="#eb5146" fill-rule="evenodd"/>
        <path d="M69.5.94c17.05,0,34.33.81,51.37,2.42,7.28.72,14.05,7.48,14.77,14.76,3.21,34.09,3.21,68.66,0,102.75-.72,7.28-7.48,14.05-14.76,14.77-17.05,1.61-34.33,2.42-51.38,2.42s-34.33-.81-51.37-2.42c-7.29-.72-14.05-7.48-14.77-14.76-3.21-34.09-3.21-68.66,0-102.75.72-7.28,7.48-14.05,14.76-14.77C35.17,1.75,52.45.94,69.5.94M69.5,0C52.34,0,35.19.81,18.03,2.42c-7.75.77-14.84,7.86-15.61,15.61C-.81,52.34-.81,86.66,2.42,120.97c.76,7.75,7.86,14.84,15.61,15.61,17.16,1.62,34.31,2.42,51.47,2.42s34.31-.81,51.47-2.42c7.75-.77,14.85-7.86,15.61-15.61,3.23-34.31,3.23-68.62,0-102.93-.77-7.75-7.86-14.84-15.61-15.61C103.81.81,86.66,0,69.5,0h0Z" fill="#eb5146"/>
      </g>
      <circle id="Kreis" cx="69" cy="69" r="21" fill="#323232" stroke="#323232" stroke-linecap="round" stroke-linejoin="round" stroke-width="4.72"/>
    </g>
  </g>
</svg>