<?xml version="1.0" encoding="UTF-8"?>
<svg id="track8-keys" xmlns="http://www.w3.org/2000/svg" width="138" height="138" xmlns:xlink="http://www.w3.org/1999/xlink" viewBox="0 0 138 138">
  <defs>
    <symbol id="encoder-dark" viewBox="0 0 136.46 135.85">
      <g id="encoder-dark-2" data-name="encoder-dark">
        <path d="M70.6,3l3.99-1.84c5.07-2.34,11.07-1.06,14.74,3.13l2.9,3.31c1.09,1.24,2.67,1.95,4.32,1.93l4.4-.06c5.58-.08,10.54,3.53,12.19,8.86l1.3,4.2c.49,1.58,1.65,2.87,3.17,3.52l4.04,1.73c5.13,2.2,8.19,7.51,7.54,13.05l-.52,4.37c-.2,1.64.34,3.29,1.46,4.5l2.99,3.23c3.79,4.09,4.43,10.2,1.58,14.99l-2.25,3.78c-.85,1.42-1.03,3.14-.49,4.71l1.42,4.16c1.8,5.28-.1,11.12-4.66,14.33l-3.59,2.54c-1.35.95-2.22,2.45-2.37,4.1l-.4,4.38c-.51,5.56-4.61,10.11-10.08,11.2l-4.31.86c-1.62.32-3.02,1.34-3.83,2.78l-2.15,3.84c-2.72,4.87-8.33,7.36-13.77,6.13l-4.29-.97c-1.61-.37-3.31,0-4.63.98l-3.52,2.63c-4.47,3.34-10.6,3.34-15.07,0l-3.52-2.63c-1.32-.99-3.02-1.35-4.63-.98l-4.29.97c-5.44,1.23-11.04-1.26-13.77-6.13l-2.15-3.84c-.81-1.44-2.21-2.46-3.83-2.78l-4.31-.86c-5.47-1.09-9.58-5.64-10.08-11.2l-.4-4.38c-.15-1.65-1.02-3.15-2.37-4.1l-3.59-2.54c-4.56-3.22-6.45-9.05-4.66-14.33l1.42-4.16c.53-1.57.35-3.29-.49-4.71l-2.25-3.78c-2.85-4.79-2.21-10.89,1.58-14.99l2.99-3.23c1.12-1.21,1.66-2.86,1.46-4.5l-.52-4.37c-.66-5.54,2.41-10.85,7.54-13.05l4.04-1.73c1.52-.65,2.68-1.94,3.17-3.52l1.3-4.2c1.65-5.33,6.61-8.93,12.19-8.86l4.4.06c1.65.02,3.23-.68,4.32-1.93l2.9-3.31C50.81.1,56.81-1.18,61.87,1.16l3.99,1.84c1.5.69,3.23.69,4.73,0Z" fill="#323232" fill-rule="evenodd"/>
        <path d="M70.6,3l3.99-1.84c5.07-2.34,11.07-1.06,14.74,3.13l2.9,3.31c1.09,1.24,2.67,1.95,4.32,1.93l4.4-.06c5.58-.08,10.54,3.53,12.19,8.86l1.3,4.2c.49,1.58,1.65,2.87,3.17,3.52l4.04,1.73c5.13,2.2,8.19,7.51,7.54,13.05l-.52,4.37c-.2,1.64.34,3.29,1.46,4.5l2.99,3.23c3.79,4.09,4.43,10.2,1.58,14.99l-2.25,3.78c-.85,1.42-1.03,3.14-.49,4.71l1.42,4.16c1.8,5.28-.1,11.12-4.66,14.33l-3.59,2.54c-1.35.95-2.22,2.45-2.37,4.1l-.4,4.38c-.51,5.56-4.61,10.11-10.08,11.2l-4.31.86c-1.62.32-3.02,1.34-3.83,2.78l-2.15,3.84c-2.72,4.87-8.33,7.36-13.77,6.13l-4.29-.97c-1.61-.37-3.31,0-4.63.98l-3.52,2.63c-4.47,3.34-10.6,3.34-15.07,0l-3.52-2.63c-1.32-.99-3.02-1.35-4.63-.98l-4.29.97c-5.44,1.23-11.04-1.26-13.77-6.13l-2.15-3.84c-.81-1.44-2.21-2.46-3.83-2.78l-4.31-.86c-5.47-1.09-9.58-5.64-10.08-11.2l-.4-4.38c-.15-1.65-1.02-3.15-2.37-4.1l-3.59-2.54c-4.56-3.22-6.45-9.05-4.66-14.33l1.42-4.16c.53-1.57.35-3.29-.49-4.71l-2.25-3.78c-2.85-4.79-2.21-10.89,1.58-14.99l2.99-3.23c1.12-1.21,1.66-2.86,1.46-4.5l-.52-4.37c-.66-5.54,2.41-10.85,7.54-13.05l4.04-1.73c1.52-.65,2.68-1.94,3.17-3.52l1.3-4.2c1.65-5.33,6.61-8.93,12.19-8.86l4.4.06c1.65.02,3.23-.68,4.32-1.93l2.9-3.31C50.81.1,56.81-1.18,61.87,1.16l3.99,1.84c1.5.69,3.23.69,4.73,0Z" fill="#999" fill-rule="evenodd" opacity=".3"/>
      </g>
    </symbol>
  </defs>
  <g id="encoders-dark">
    <g id="encoder-3-dark">
      <use width="136.46" height="135.85" transform="translate(.77 1.68)" xlink:href="#encoder-dark"/>
      <path d="M69.02,105.3c-5.6,0-10.4-1.36-14.4-4.08s-7.02-6.66-9.05-11.83l6.55-2.65c3.33,7.87,8.97,11.8,16.9,11.8,4.93,0,8.84-1.23,11.73-3.67,2.88-2.45,4.33-5.76,4.33-9.93s-1.36-7.77-4.08-10.22c-2.72-2.45-6.49-3.67-11.33-3.67h-4.6v-6.65h3.75c4.07,0,7.33-1.16,9.8-3.47,2.47-2.32,3.7-5.34,3.7-9.08s-1.2-6.67-3.6-8.92c-2.4-2.25-5.53-3.38-9.4-3.38-3.2,0-6.09.85-8.68,2.55s-4.64,4.15-6.17,7.35l-6.55-2.5c1.8-4.37,4.61-7.8,8.42-10.3,3.82-2.5,8.14-3.75,12.98-3.75,3.93,0,7.43.79,10.5,2.38,3.07,1.58,5.47,3.75,7.22,6.5s2.62,5.88,2.62,9.38-.87,6.61-2.6,9.42c-1.73,2.82-4.13,4.94-7.2,6.38,3.93,1.27,7.01,3.47,9.22,6.6,2.22,3.13,3.33,6.87,3.33,11.2,0,4.03-.99,7.59-2.97,10.67-1.98,3.08-4.73,5.5-8.25,7.25-3.52,1.75-7.58,2.62-12.18,2.62Z" fill="#fff"/>
    </g>
  </g>
</svg>