<?xml version="1.0" encoding="UTF-8"?>
<svg id="track8-keys" xmlns="http://www.w3.org/2000/svg" width="138" height="138" xmlns:xlink="http://www.w3.org/1999/xlink" viewBox="0 0 138 138">
  <defs>
    <symbol id="cushin-dark" viewBox="0 0 137.5 137.5">
      <g id="rect-background-dark">
        <path d="M17.99,2.38C51.83-.79,85.67-.79,119.51,2.38c7.75.76,14.84,7.86,15.61,15.61,3.18,33.84,3.18,67.68,0,101.52-.76,7.75-7.86,14.84-15.61,15.61-33.84,3.18-67.68,3.18-101.52,0-7.75-.76-14.84-7.86-15.61-15.61C-.79,85.67-.79,51.83,2.38,17.99c.76-7.75,7.86-14.84,15.61-15.61Z" fill="#323232" fill-rule="evenodd"/>
      </g>
    </symbol>
  </defs>
  <g id="keypad-dark">
    <g id="midi-overview-dark">
      <use width="137.5" height="137.5" transform="" xlink:href="#cushin-dark"/>
      <g id="keyboard">
        <g id="path24469">
          <path d="M102.37,49.16v41.26c0,.5-.41.91-.91.91H36.08c-.53,0-.96-.43-.96-.96v-41.19c0-.56.45-1.01,1.01-1.01h65.24c.55,0,.99.44.99.99Z" fill="none" stroke="#fff" stroke-linecap="round" stroke-linejoin="round" stroke-width="4.72"/>
        </g>
        <g id="path24471">
          <path d="M46.17,49.18v24.09h7.03v-24.09" fill="#fff" stroke="#fff" stroke-linecap="round" stroke-linejoin="round" stroke-width="4.74"/>
        </g>
        <g id="path25235">
          <path d="M65.23,49.18v24.09h7.03v-24.09" fill="#fff" stroke="#fff" stroke-linecap="round" stroke-linejoin="round" stroke-width="4.74"/>
        </g>
        <g id="path25237">
          <path d="M84.3,49.18v24.09h7.03v-24.09" fill="#fff" stroke="#fff" stroke-linecap="round" stroke-linejoin="round" stroke-width="4.74"/>
        </g>
        <g id="path25293">
          <path d="M50.18,90.33v-16.06" fill="none" stroke="#fff" stroke-linecap="round" stroke-linejoin="round" stroke-width="2.8"/>
        </g>
        <g id="path25943">
          <path d="M68.25,90.33v-16.06" fill="none" stroke="#fff" stroke-linecap="round" stroke-linejoin="round" stroke-width="2.8"/>
        </g>
        <g id="path25945">
          <path d="M87.31,90.33v-16.06" fill="none" stroke="#fff" stroke-linecap="round" stroke-linejoin="round" stroke-width="2.8"/>
        </g>
      </g>
    </g>
  </g>
</svg>