<?xml version="1.0" encoding="UTF-8"?>
<svg id="track8-keys" xmlns="http://www.w3.org/2000/svg" width="138" height="138" viewBox="0 0 138 138">
  <g id="track-keys-light">
    <g id="track-key-5-light">
      <path d="M68.25,105.3c-3.63,0-6.9-.42-9.8-1.28-2.9-.85-5.38-1.91-7.42-3.17-2.05-1.27-3.64-2.5-4.78-3.7l4.25-5.5c1.23,1.17,2.66,2.29,4.28,3.38,1.62,1.08,3.53,1.98,5.72,2.67,2.2.7,4.78,1.05,7.75,1.05,3.73,0,6.95-.78,9.65-2.35,2.7-1.57,4.78-3.66,6.22-6.27,1.45-2.62,2.18-5.48,2.18-8.58s-.67-6.06-2-8.48c-1.33-2.42-3.18-4.31-5.55-5.67-2.37-1.37-5.12-2.05-8.25-2.05-3.5,0-6.5.65-9,1.95s-4.52,2.8-6.05,4.5l-6.75-2.25,4.65-35.45h35.7v6.6h-29.6l-3.2,23c1.83-1.53,4.04-2.76,6.62-3.67,2.58-.92,5.36-1.38,8.33-1.38,4.47,0,8.38.99,11.75,2.98,3.37,1.98,5.99,4.67,7.88,8.05,1.88,3.38,2.83,7.21,2.83,11.47s-1,8.28-3,11.95c-2,3.67-4.9,6.62-8.7,8.85-3.8,2.23-8.37,3.35-13.7,3.35Z" fill="#323232"/>
      <g id="rect24298">
        <path d="M69,4.7c16.77,0,33.78.8,50.53,2.37,5.52.54,10.85,5.87,11.39,11.37,3.15,33.55,3.15,67.56,0,101.09-.54,5.52-5.87,10.85-11.37,11.39-16.77,1.58-33.78,2.38-50.55,2.38s-33.78-.8-50.53-2.37c-5.52-.54-10.85-5.87-11.39-11.37-3.15-33.55-3.15-67.56,0-101.09.54-5.52,5.87-10.85,11.37-11.39,16.77-1.58,33.78-2.38,50.55-2.38M69,0C52,0,35,.8,18.01,2.4c-7.75.76-14.85,7.86-15.61,15.61C-.8,52-.8,86,2.4,119.99c.76,7.75,7.86,14.85,15.61,15.61,17,1.6,34,2.4,50.99,2.4s34-.8,50.99-2.4c7.75-.76,14.85-7.86,15.61-15.61,3.2-34,3.2-67.99,0-101.99-.76-7.75-7.86-14.85-15.61-15.61C103,.8,86,0,69,0h0Z" fill="#323232"/>
      </g>
    </g>
  </g>
</svg>