<?xml version="1.0" encoding="UTF-8"?>
<svg id="track8-keys" xmlns="http://www.w3.org/2000/svg" width="138" height="138" xmlns:xlink="http://www.w3.org/1999/xlink" viewBox="0 0 138 138">
  <defs>
    <symbol id="cushin-dark" viewBox="0 0 137.5 137.5">
      <g id="rect-background-dark">
        <path d="M17.99,2.38C51.83-.79,85.67-.79,119.51,2.38c7.75.76,14.84,7.86,15.61,15.61,3.18,33.84,3.18,67.68,0,101.52-.76,7.75-7.86,14.84-15.61,15.61-33.84,3.18-67.68,3.18-101.52,0-7.75-.76-14.84-7.86-15.61-15.61C-.79,85.67-.79,51.83,2.38,17.99c.76-7.75,7.86-14.84,15.61-15.61Z" fill="#323232" fill-rule="evenodd"/>
      </g>
    </symbol>
  </defs>
  <g id="keypad-dark">
    <g id="set-punch-in-dark">
      <use width="137.5" height="137.5" transform="" xlink:href="#cushin-dark"/>
      <g id="icon-punch-in">
        <path id="path24348" d="M70.21,42.38h-24.2c-3.34,0-6.05,2.71-6.05,6.05v41.14c0,3.34,2.71,6.05,6.05,6.05h24.2" fill="none" stroke="#fff" stroke-linecap="round" stroke-linejoin="round" stroke-width="4.72"/>
        <path id="path24350" d="M49.64,69h46.43c.37,0,.46-.52.11-.64l-23.66-8.64c-.53-.19-1.09.2-1.09.76v17.04c0,.56.56.95,1.09.76l25.53-9.28" fill="#fff" stroke="#fff" stroke-linecap="round" stroke-linejoin="round" stroke-width="4.72"/>
      </g>
    </g>
  </g>
</svg>