<?xml version="1.0" encoding="UTF-8"?>
<svg id="track8-keys" xmlns="http://www.w3.org/2000/svg" width="138" height="138" viewBox="0 0 138 138">
  <g id="keypad-light">
    <g id="audio-midi-browser-light">
      <g id="document">
        <path id="path24288" d="M48.27,43.58h33.81c.08,0,.16.04.21.09l9.59,9.59h-8.52c-.64,0-1.16-.52-1.16-1.16v-8.52l9.68,9.68v39.93c0,.67-.54,1.21-1.21,1.21h-42.43c-.63,0-1.13-.51-1.14-1.13v-48.53c0-.64.52-1.16,1.16-1.16Z" fill="none" stroke="#323232" stroke-linecap="round" stroke-linejoin="round" stroke-width="4.72"/>
        <path id="path24290" d="M58.01,61.74h22.99" fill="none" stroke="#323232" stroke-linecap="round" stroke-linejoin="round" stroke-width="4.72"/>
        <path id="path24292" d="M58.01,71.42h22.99" fill="none" stroke="#323232" stroke-linecap="round" stroke-linejoin="round" stroke-width="4.72"/>
        <path id="path24294" d="M58.01,81.1h22.99" fill="none" stroke="#323232" stroke-linecap="round" stroke-linejoin="round" stroke-width="4.72"/>
      </g>
      <g id="cushion-outline">
        <g id="rect24298">
          <path d="M69,4.7c16.77,0,33.78.8,50.53,2.37,5.52.54,10.85,5.87,11.39,11.37,3.15,33.55,3.15,67.56,0,101.09-.54,5.52-5.87,10.85-11.37,11.39-16.77,1.58-33.78,2.38-50.55,2.38s-33.78-.8-50.53-2.37c-5.52-.54-10.85-5.87-11.39-11.37-3.15-33.55-3.15-67.56,0-101.09.54-5.52,5.87-10.85,11.37-11.39,16.77-1.58,33.78-2.38,50.55-2.38M69,0C52,0,35,.8,18.01,2.4c-7.75.76-14.84,7.86-15.61,15.61C-.8,52-.8,86,2.4,119.99c.76,7.75,7.86,14.84,15.61,15.61,17,1.6,34,2.4,50.99,2.4s34-.8,50.99-2.4c7.75-.76,14.85-7.86,15.61-15.61,3.2-34,3.2-67.99,0-101.99-.76-7.75-7.86-14.84-15.61-15.61C103,.8,86,0,69,0h0Z" fill="#323232"/>
        </g>
      </g>
    </g>
  </g>
</svg>