<?xml version="1.0" encoding="UTF-8"?>
<svg id="track8-keys" xmlns="http://www.w3.org/2000/svg" width="138" height="138" viewBox="0 0 138 138">
  <g id="keypad-grey">
    <g id="audio-overview-grey">
      <g id="cushion-grey">
        <path d="M69.5,4.7c16.93,0,34.1.81,51,2.4,5.52.55,10.85,5.87,11.39,11.37,3.19,33.86,3.19,68.19,0,102.03-.55,5.52-5.87,10.85-11.37,11.39-16.93,1.59-34.1,2.4-51.03,2.4s-34.1-.81-51-2.4c-5.52-.55-10.85-5.87-11.39-11.37-3.19-33.86-3.19-68.19,0-102.03.55-5.52,5.87-10.85,11.37-11.39,16.93-1.59,34.1-2.4,51.03-2.4M69.5,0C52.34,0,35.19.81,18.03,2.42c-7.75.77-14.85,7.86-15.61,15.61C-.81,52.34-.81,86.66,2.42,120.97c.76,7.75,7.86,14.84,15.61,15.61,17.16,1.62,34.31,2.42,51.47,2.42s34.31-.81,51.47-2.42c7.75-.77,14.84-7.86,15.61-15.61,3.23-34.31,3.23-68.62,0-102.93-.77-7.75-7.86-14.84-15.61-15.61C103.81.81,86.66,0,69.5,0h0Z" fill="#999"/>
      </g>
      <g id="waveform">
        <g>
          <path id="path24300" d="M34,63v12" fill="#fff" stroke="#323232" stroke-linecap="round" stroke-miterlimit="3.1" stroke-width="4"/>
          <path id="path24302" d="M41,58v22" fill="#fff" stroke="#323232" stroke-linecap="round" stroke-miterlimit="3.1" stroke-width="4"/>
          <path id="path24304" d="M48,53.2v31.75" fill="#fff" stroke="#323232" stroke-linecap="round" stroke-miterlimit="3.1" stroke-width="4"/>
          <path id="path24306" d="M62,63v12" fill="#fff" stroke="#323232" stroke-linecap="round" stroke-miterlimit="3.1" stroke-width="4"/>
          <path id="path24308" d="M76,53v32" fill="#fff" stroke="#323232" stroke-linecap="round" stroke-miterlimit="3.1" stroke-width="4"/>
          <path id="path24310" d="M83,47v44" fill="none" fill-rule="evenodd" stroke="#999" stroke-miterlimit="3.78" stroke-width="4"/>
          <path id="path24312" d="M55,58v22" fill="#fff" stroke="#323232" stroke-linecap="round" stroke-miterlimit="3.1" stroke-width="4"/>
          <path id="path24314" d="M69,57.99v22" fill="#fff" stroke="#323232" stroke-linecap="round" stroke-miterlimit="3.1" stroke-width="4"/>
          <path id="path24316" d="M90,53v32" fill="none" fill-rule="evenodd" stroke="#999" stroke-miterlimit="3.78" stroke-width="4"/>
          <path id="path24318" d="M97,59v20" fill="#fff" stroke="#323232" stroke-linecap="round" stroke-miterlimit="3.1" stroke-width="4"/>
          <path id="path24320" d="M104,63v12" fill="#fff" stroke="#323232" stroke-linecap="round" stroke-miterlimit="3.1" stroke-width="4"/>
          <path id="path24322" d="M27,68v2" fill="#fff" stroke="#323232" stroke-linecap="round" stroke-miterlimit="3.1" stroke-width="4"/>
          <path id="path24324" d="M111,67.92v2.08" fill="#fff" stroke="#323232" stroke-linecap="round" stroke-miterlimit="3.1" stroke-width="4"/>
        </g>
        <g>
          <path id="path24300-2" data-name="path24300" d="M34,63v12" fill="none" stroke="#999" stroke-linecap="round" stroke-linejoin="round" stroke-width="4"/>
          <path id="path24302-2" data-name="path24302" d="M41,58v22" fill="none" stroke="#999" stroke-linecap="round" stroke-linejoin="round" stroke-width="4"/>
          <path id="path24304-2" data-name="path24304" d="M48,53.2v31.75" fill="none" stroke="#999" stroke-linecap="round" stroke-linejoin="round" stroke-width="4"/>
          <path id="path24306-2" data-name="path24306" d="M62,63v12" fill="none" stroke="#999" stroke-linecap="round" stroke-linejoin="round" stroke-width="4"/>
          <path id="path24308-2" data-name="path24308" d="M76,53v32" fill="none" stroke="#999" stroke-linecap="round" stroke-linejoin="round" stroke-width="4"/>
          <path id="path24310-2" data-name="path24310" d="M83,47v44" fill="none" stroke="#999" stroke-linecap="round" stroke-linejoin="round" stroke-width="4"/>
          <path id="path24312-2" data-name="path24312" d="M55,58v22" fill="none" stroke="#999" stroke-linecap="round" stroke-linejoin="round" stroke-width="4"/>
          <path id="path24314-2" data-name="path24314" d="M69,57.99v22" fill="none" stroke="#999" stroke-linecap="round" stroke-linejoin="round" stroke-width="4"/>
          <path id="path24316-2" data-name="path24316" d="M90,53v32" fill="none" stroke="#999" stroke-linecap="round" stroke-linejoin="round" stroke-width="4"/>
          <path id="path24318-2" data-name="path24318" d="M97,59v20" fill="none" stroke="#999" stroke-linecap="round" stroke-linejoin="round" stroke-width="4"/>
          <path id="path24320-2" data-name="path24320" d="M104,63v12" fill="none" stroke="#999" stroke-linecap="round" stroke-linejoin="round" stroke-width="4"/>
          <path id="path24322-2" data-name="path24322" d="M27,68v2" fill="none" stroke="#999" stroke-linecap="round" stroke-linejoin="round" stroke-width="4"/>
          <path id="path24324-2" data-name="path24324" d="M111,67.92v2.08" fill="none" stroke="#999" stroke-linecap="round" stroke-linejoin="round" stroke-width="4"/>
        </g>
      </g>
    </g>
  </g>
</svg>