<?xml version="1.0" encoding="UTF-8"?>
<svg id="track8-keys" xmlns="http://www.w3.org/2000/svg" width="138" height="138" xmlns:xlink="http://www.w3.org/1999/xlink" viewBox="0 0 138 138">
  <defs>
    <symbol id="cushin-dark" viewBox="0 0 137.5 137.5">
      <g id="rect-background-dark">
        <path d="M17.99,2.38C51.83-.79,85.67-.79,119.51,2.38c7.75.76,14.84,7.86,15.61,15.61,3.18,33.84,3.18,67.68,0,101.52-.76,7.75-7.86,14.84-15.61,15.61-33.84,3.18-67.68,3.18-101.52,0-7.75-.76-14.84-7.86-15.61-15.61C-.79,85.67-.79,51.83,2.38,17.99c.76-7.75,7.86-14.84,15.61-15.61Z" fill="#323232" fill-rule="evenodd"/>
      </g>
    </symbol>
  </defs>
  <g id="keypad-dark">
    <g id="shift-dark">
      <use width="137.5" height="137.5" transform="" xlink:href="#cushin-dark"/>
      <path id="arrow-up" d="M38.58,63.19l29.83-24.86c.45-.38,1.1-.38,1.55,0l29.64,24.7c.52.43.21,1.27-.46,1.27h-15.35c-.72,0-1.3.58-1.3,1.3v29.42c0,.67-.55,1.22-1.22,1.22h-24.21c-.66,0-1.19-.53-1.19-1.19v-29.5c0-.69-.56-1.25-1.25-1.25h-15.64c-.59,0-.86-.74-.4-1.12Z" fill="none" stroke="#fff" stroke-linecap="round" stroke-linejoin="round" stroke-width="4.72"/>
    </g>
  </g>
</svg>