<?xml version="1.0" encoding="UTF-8"?>
<svg id="track8-keys" xmlns="http://www.w3.org/2000/svg" width="138" height="138" viewBox="0 0 138 138">
  <g id="keypad-grey">
    <g id="shift-grey">
      <path id="arrow-up" d="M35.53,62.8l32.81-27.34c.5-.41,1.21-.41,1.71,0l32.61,27.17c.57.47.23,1.4-.51,1.4h-16.88c-.79,0-1.43.64-1.43,1.43v32.36c0,.74-.6,1.34-1.34,1.34h-26.63c-.72,0-1.31-.59-1.31-1.31v-32.45c0-.76-.61-1.37-1.37-1.37h-17.21c-.65,0-.94-.81-.44-1.23Z" fill="none" stroke="#999" stroke-linecap="round" stroke-linejoin="round" stroke-width="4.72"/>
      <g id="cushion-grey">
        <path d="M69.5,4.7c16.93,0,34.1.81,51,2.4,5.52.55,10.85,5.87,11.39,11.37,3.19,33.86,3.19,68.19,0,102.03-.55,5.52-5.87,10.85-11.37,11.39-16.93,1.59-34.1,2.4-51.03,2.4s-34.1-.81-51-2.4c-5.52-.55-10.85-5.87-11.39-11.37-3.19-33.86-3.19-68.19,0-102.03.55-5.52,5.87-10.85,11.37-11.39,16.93-1.59,34.1-2.4,51.03-2.4M69.5,0C52.34,0,35.19.81,18.03,2.42c-7.75.77-14.85,7.86-15.61,15.61C-.81,52.34-.81,86.66,2.42,120.97c.76,7.75,7.86,14.85,15.61,15.61,17.16,1.62,34.31,2.42,51.47,2.42s34.31-.81,51.47-2.42c7.75-.76,14.84-7.86,15.61-15.61,3.23-34.31,3.23-68.62,0-102.93-.77-7.75-7.86-14.84-15.61-15.61C103.81.81,86.66,0,69.5,0h0Z" fill="#999"/>
      </g>
    </g>
  </g>
</svg>