<?xml version="1.0" encoding="UTF-8"?>
<svg id="track8-keys" xmlns="http://www.w3.org/2000/svg" width="138" height="138" xmlns:xlink="http://www.w3.org/1999/xlink" viewBox="0 0 138 138">
  <defs>
    <linearGradient id="Unbenannter_Verlauf_1019" data-name="Unbenannter Verlauf 1019" x1="9.27" y1="102.3" x2="128.05" y2="33.72" gradientUnits="userSpaceOnUse">
      <stop offset="0" stop-color="#000" stop-opacity=".2"/>
      <stop offset=".01" stop-color="#010101" stop-opacity=".21"/>
      <stop offset=".38" stop-color="#262626" stop-opacity=".64"/>
      <stop offset=".67" stop-color="#3d3d3d" stop-opacity=".9"/>
      <stop offset=".86" stop-color="#464646"/>
    </linearGradient>
    <linearGradient id="Unbenannter_Verlauf_1217" data-name="Unbenannter Verlauf 1217" x1="9.27" y1="102.3" x2="128.05" y2="33.72" gradientUnits="userSpaceOnUse">
      <stop offset="0" stop-color="#505050"/>
      <stop offset=".19" stop-color="#323232"/>
      <stop offset=".77" stop-color="#323232"/>
      <stop offset=".86" stop-color="#3e3e3e"/>
      <stop offset=".94" stop-color="#505050"/>
    </linearGradient>
    <symbol id="encoder-dark" viewBox="0 0 137.25 136.43">
      <g id="encoder-dark-2" data-name="encoder-dark">
        <path d="M70.59,3.45l7.17-2.66c4.84-1.8,10.29-.45,13.74,3.39l5.11,5.69c.9,1.01,2.14,1.65,3.48,1.83l7.58.98c5.12.66,9.32,4.38,10.59,9.38l1.88,7.41c.33,1.31,1.12,2.46,2.23,3.23l6.26,4.39c4.23,2.96,6.22,8.21,5.02,13.23l-1.78,7.44c-.31,1.31-.15,2.7.47,3.9l3.5,6.8c2.37,4.59,1.69,10.16-1.71,14.04l-5.03,5.76c-.89,1.02-1.38,2.32-1.39,3.67l-.06,7.65c-.04,5.16-3.22,9.78-8.04,11.64l-7.13,2.76c-1.26.49-2.3,1.41-2.94,2.6l-3.6,6.74c-2.43,4.55-7.4,7.16-12.53,6.57l-7.6-.87c-1.34-.15-2.7.18-3.81.94l-6.32,4.3c-4.27,2.9-9.88,2.9-14.15,0l-6.32-4.3c-1.12-.76-2.47-1.09-3.81-.94l-7.6.87c-5.13.58-10.09-2.02-12.53-6.57l-3.6-6.74c-.64-1.19-1.68-2.12-2.94-2.6l-7.13-2.76c-4.81-1.87-8-6.48-8.04-11.64l-.06-7.65c0-1.35-.5-2.65-1.39-3.67l-5.03-5.76c-3.39-3.89-4.07-9.46-1.71-14.04l3.5-6.8c.62-1.2.79-2.58.47-3.9l-1.78-7.44c-1.2-5.02.79-10.26,5.02-13.23l6.26-4.39c1.11-.78,1.9-1.92,2.23-3.23l1.88-7.41c1.27-5,5.47-8.72,10.59-9.38l7.58-.98c1.34-.17,2.57-.82,3.48-1.83l5.11-5.69c3.45-3.84,8.9-5.18,13.74-3.39l7.17,2.66c1.27.47,2.66.47,3.93,0Z" fill="url(#Unbenannter_Verlauf_1019)" fill-rule="evenodd"/>
        <path d="M82.13,5c2.15,0,4.21.92,5.64,2.51l5.11,5.68c1.7,1.89,4.03,3.12,6.56,3.44l7.58.98c3.11.4,5.61,2.62,6.38,5.66l1.88,7.41c.63,2.47,2.12,4.63,4.21,6.09l6.26,4.39c2.56,1.8,3.75,4.93,3.02,7.97l-1.78,7.44c-.59,2.48-.27,5.09.89,7.35l3.5,6.79c1.44,2.78,1.03,6.11-1.03,8.46l-5.03,5.76c-1.68,1.92-2.61,4.38-2.63,6.92l-.06,7.65c-.02,3.13-1.92,5.88-4.84,7.02l-7.13,2.76c-2.37.92-4.34,2.66-5.54,4.91l-3.6,6.74c-1.32,2.47-3.88,4.01-6.69,4.01-.29,0-.58-.02-.86-.05l-7.6-.87c-.4-.05-.81-.07-1.21-.07-2.14,0-4.21.64-5.98,1.84l-6.32,4.3c-1.26.86-2.74,1.31-4.26,1.31s-3-.45-4.26-1.31l-6.32-4.3c-1.77-1.21-3.84-1.84-5.98-1.84-.4,0-.81.02-1.21.07l-7.6.87c-.29.03-.58.05-.86.05-2.8,0-5.36-1.54-6.69-4.01l-3.6-6.75c-1.2-2.25-3.17-3.99-5.54-4.91l-7.13-2.76c-2.92-1.13-4.82-3.89-4.84-7.02l-.06-7.65c-.02-2.55-.95-5.01-2.63-6.92l-5.03-5.76c-2.06-2.36-2.46-5.68-1.03-8.46l3.51-6.8c1.17-2.26,1.48-4.87.89-7.35l-1.78-7.44c-.73-3.05.46-6.17,3.02-7.97l6.26-4.39c2.08-1.46,3.58-3.63,4.21-6.09l1.88-7.41c.77-3.03,3.28-5.25,6.38-5.65l7.58-.98c2.53-.33,4.86-1.55,6.56-3.44l5.11-5.69c1.44-1.6,3.49-2.51,5.64-2.51.9,0,1.79.16,2.63.47l7.17,2.66c1.19.44,2.43.66,3.7.66s2.51-.22,3.7-.67l7.17-2.66c.85-.31,1.73-.47,2.64-.47M82.13,0c-1.47,0-2.95.26-4.37.79l-7.17,2.66c-.63.24-1.3.35-1.96.35s-1.33-.12-1.96-.35l-7.17-2.66c-1.43-.53-2.91-.79-4.37-.79-3.5,0-6.93,1.47-9.36,4.17l-5.11,5.69c-.9,1.01-2.14,1.65-3.48,1.83l-7.58.98c-5.12.66-9.32,4.38-10.59,9.38l-1.88,7.41c-.33,1.31-1.12,2.46-2.23,3.23l-6.26,4.39c-4.23,2.96-6.22,8.21-5.02,13.23l1.78,7.44c.31,1.32.15,2.7-.47,3.9l-3.5,6.79c-2.37,4.59-1.69,10.16,1.71,14.04l5.03,5.76c.89,1.02,1.38,2.32,1.39,3.67l.06,7.65c.04,5.16,3.22,9.78,8.04,11.64l7.13,2.76c1.26.49,2.3,1.41,2.94,2.6l3.6,6.74c2.21,4.13,6.49,6.66,11.1,6.66.47,0,.95-.03,1.43-.08l7.6-.87c.21-.02.43-.04.64-.04,1.13,0,2.23.34,3.17.98l6.32,4.3c2.13,1.45,4.6,2.18,7.07,2.18s4.94-.73,7.07-2.18l6.32-4.3c.94-.64,2.05-.98,3.17-.98.21,0,.43.01.64.04l7.6.87c.48.05.96.08,1.43.08,4.6,0,8.89-2.53,11.1-6.66l3.6-6.74c.64-1.19,1.68-2.12,2.94-2.6l7.13-2.76c4.81-1.87,8-6.48,8.04-11.64l.06-7.65c0-1.35.5-2.65,1.39-3.67l5.03-5.76c3.4-3.89,4.07-9.46,1.71-14.04l-3.5-6.79c-.62-1.2-.79-2.58-.47-3.9l1.78-7.44c1.2-5.02-.79-10.26-5.02-13.23l-6.26-4.39c-1.11-.78-1.9-1.92-2.23-3.23l-1.88-7.41c-1.27-5-5.47-8.72-10.59-9.38l-7.58-.98c-1.34-.17-2.57-.82-3.48-1.83l-5.11-5.69c-2.43-2.71-5.86-4.17-9.36-4.17h0Z" fill="url(#Unbenannter_Verlauf_1217)"/>
      </g>
    </symbol>
  </defs>
  <g id="encoders-dark">
    <g id="encoder-8-dark">
      <use width="137.25" height="136.43" transform="translate(.38 1.6)" xlink:href="#encoder-dark"/>
      <path d="M69.97,105.3c-4.43,0-8.37-.92-11.8-2.75-3.43-1.83-6.12-4.33-8.08-7.5s-2.92-6.73-2.92-10.7c0-4.5,1.19-8.41,3.58-11.72,2.38-3.32,5.47-5.68,9.27-7.08-2.07-.87-3.83-2.05-5.27-3.55-1.45-1.5-2.55-3.2-3.3-5.1-.75-1.9-1.12-3.92-1.12-6.05,0-3.33.84-6.35,2.53-9.05,1.68-2.7,4-4.86,6.95-6.48,2.95-1.62,6.34-2.42,10.17-2.42s7.23.81,10.2,2.42c2.97,1.62,5.29,3.78,6.97,6.48,1.68,2.7,2.53,5.72,2.53,9.05,0,2.13-.37,4.14-1.1,6.03s-1.82,3.57-3.27,5.07-3.28,2.7-5.48,3.6c3.93,1.43,7.08,3.8,9.43,7.1,2.35,3.3,3.52,7.2,3.52,11.7,0,3.97-.97,7.53-2.92,10.7s-4.64,5.67-8.08,7.5c-3.43,1.83-7.37,2.75-11.8,2.75ZM69.97,98.65c2.93,0,5.58-.6,7.92-1.8,2.35-1.2,4.2-2.91,5.55-5.12,1.35-2.22,2.03-4.84,2.03-7.88,0-2.73-.65-5.26-1.95-7.58-1.3-2.32-3.12-4.17-5.45-5.55-2.33-1.38-5.03-2.08-8.1-2.08s-5.77.69-8.1,2.08c-2.33,1.38-4.14,3.23-5.43,5.55-1.28,2.32-1.92,4.84-1.92,7.58,0,3.03.67,5.66,2,7.88s3.17,3.92,5.5,5.12,4.98,1.8,7.95,1.8ZM69.97,62.75c3.77,0,6.8-1.09,9.1-3.28,2.3-2.18,3.45-4.91,3.45-8.17,0-3.63-1.19-6.51-3.58-8.62-2.38-2.12-5.38-3.17-8.97-3.17s-6.54,1.06-8.92,3.17c-2.38,2.12-3.58,4.99-3.58,8.62,0,3.27,1.13,5.99,3.4,8.17,2.27,2.18,5.3,3.28,9.1,3.28Z" fill="#fff"/>
    </g>
  </g>
</svg>