<?xml version="1.0" encoding="UTF-8"?>
<svg id="track8-keys" xmlns="http://www.w3.org/2000/svg" width="138" height="138" xmlns:xlink="http://www.w3.org/1999/xlink" viewBox="0 0 138 138">
  <defs>
    <symbol id="cushin-dark" viewBox="0 0 137.5 137.5">
      <g id="rect-background-dark">
        <path d="M17.99,2.38C51.83-.79,85.67-.79,119.51,2.38c7.75.76,14.84,7.86,15.61,15.61,3.18,33.84,3.18,67.68,0,101.52-.76,7.75-7.86,14.84-15.61,15.61-33.84,3.18-67.68,3.18-101.52,0-7.75-.76-14.84-7.86-15.61-15.61C-.79,85.67-.79,51.83,2.38,17.99c.76-7.75,7.86-14.84,15.61-15.61Z" fill="#323232" fill-rule="evenodd"/>
      </g>
    </symbol>
  </defs>
  <g id="keypad-dark">
    <g id="audio-midi-browser-dark">
      <use width="137.5" height="137.5" transform="" xlink:href="#cushin-dark"/>
      <g id="document">
        <path id="path24288" d="M48.27,43.58h33.81c.08,0,.16.04.21.09l9.59,9.59h-8.52c-.64,0-1.16-.52-1.16-1.16v-8.52l9.68,9.68v39.93c0,.67-.54,1.21-1.21,1.21h-42.43c-.63,0-1.13-.51-1.14-1.13v-48.53c0-.64.52-1.16,1.16-1.16Z" fill="none" stroke="#fff" stroke-linecap="round" stroke-linejoin="round" stroke-width="4.72"/>
        <path id="path24290" d="M58.01,61.74h22.99" fill="none" stroke="#fff" stroke-linecap="round" stroke-linejoin="round" stroke-width="4.72"/>
        <path id="path24292" d="M58.01,71.42h22.99" fill="none" stroke="#fff" stroke-linecap="round" stroke-linejoin="round" stroke-width="4.72"/>
        <path id="path24294" d="M58.01,81.1h22.99" fill="none" stroke="#fff" stroke-linecap="round" stroke-linejoin="round" stroke-width="4.72"/>
      </g>
    </g>
  </g>
</svg>