<?xml version="1.0" encoding="UTF-8"?>
<svg id="track8-keys" xmlns="http://www.w3.org/2000/svg" width="138" height="138" viewBox="0 0 138 138">
  <g id="track-keys-dark">
    <g id="track-key-7-dark">
      <g id="rect-background-dark">
        <path d="M18.01,2.4C52-.8,86-.8,119.99,2.4c7.75.76,14.85,7.86,15.61,15.61,3.2,34,3.2,67.99,0,101.99-.76,7.75-7.86,14.84-15.61,15.61-34,3.2-67.99,3.2-101.99,0-7.75-.76-14.84-7.86-15.61-15.61C-.8,86-.8,52,2.4,18.01c.76-7.75,7.86-14.84,15.61-15.61Z" fill="#323232" fill-rule="evenodd"/>
      </g>
      <path d="M61.9,104.1c.07-7.6.78-14.93,2.12-22,1.35-7.07,3.59-14.01,6.73-20.83,3.13-6.82,7.38-13.67,12.75-20.58h-35.2v-6.6h42.9v6.3c-4.6,5.3-8.34,10.8-11.22,16.5-2.88,5.7-5.11,11.37-6.67,17-1.57,5.63-2.64,11.02-3.23,16.15-.58,5.13-.89,9.82-.92,14.05h-7.25Z" fill="#fff"/>
    </g>
  </g>
</svg>