<?xml version="1.0" encoding="UTF-8"?>
<svg id="track8-keys" xmlns="http://www.w3.org/2000/svg" width="138" height="138" viewBox="0 0 138 138">
  <g id="track-keys-dark">
    <g id="track-key-4-dark">
      <g id="rect-background-dark">
        <path d="M18.01,2.4C52-.8,86-.8,119.99,2.4c7.75.76,14.84,7.86,15.61,15.61,3.2,34,3.2,67.99,0,101.99-.76,7.75-7.86,14.84-15.61,15.61-34,3.2-67.99,3.2-101.99,0-7.75-.76-14.84-7.86-15.61-15.61C-.8,86-.8,52,2.4,18.01c.76-7.75,7.86-14.84,15.61-15.61Z" fill="#323232" fill-rule="evenodd"/>
      </g>
      <path d="M77.92,104.1v-18.4h-35.25v-4.15l36.25-47.45h6v45.3h10.15v6.3h-10.15v18.4h-7ZM51.98,79.4h25.95v-34.45l-25.95,34.45Z" fill="#fff"/>
    </g>
  </g>
</svg>