<?xml version="1.0" encoding="UTF-8"?>
<svg id="track8-keys" xmlns="http://www.w3.org/2000/svg" width="138" height="138" viewBox="0 0 138 138">
  <g id="keypad-light">
    <g id="shift-light">
      <path id="path24230" d="M38.58,63.19l29.83-24.86c.45-.38,1.1-.38,1.55,0l29.64,24.7c.52.43.21,1.27-.46,1.27h-15.35c-.72,0-1.3.58-1.3,1.3v29.42c0,.67-.55,1.22-1.22,1.22h-24.21c-.66,0-1.19-.53-1.19-1.19v-29.5c0-.69-.56-1.25-1.25-1.25h-15.64c-.59,0-.86-.74-.4-1.12Z" fill="none" stroke="#323232" stroke-linecap="round" stroke-linejoin="round" stroke-width="4.72"/>
      <g id="cushion-outline">
        <g id="rect24298">
          <path d="M69,4.7c16.77,0,33.78.8,50.53,2.37,5.52.54,10.85,5.87,11.39,11.37,3.15,33.55,3.15,67.56,0,101.09-.54,5.52-5.87,10.85-11.37,11.39-16.77,1.58-33.78,2.38-50.55,2.38s-33.78-.8-50.53-2.37c-5.52-.54-10.85-5.87-11.39-11.37-3.15-33.55-3.15-67.56,0-101.09.54-5.52,5.87-10.85,11.37-11.39,16.77-1.58,33.78-2.38,50.55-2.38M69,0C52,0,35,.8,18.01,2.4c-7.75.76-14.84,7.86-15.61,15.61C-.8,52-.8,86,2.4,119.99c.76,7.75,7.86,14.84,15.61,15.61,17,1.6,34,2.4,50.99,2.4s34-.8,50.99-2.4c7.75-.76,14.84-7.86,15.61-15.61,3.2-34,3.2-67.99,0-101.99-.76-7.75-7.86-14.84-15.61-15.61C103,.8,86,0,69,0h0Z" fill="#323232"/>
        </g>
      </g>
    </g>
  </g>
</svg>