<?xml version="1.0" encoding="UTF-8"?>
<svg id="track8-keys" xmlns="http://www.w3.org/2000/svg" width="138" height="138" viewBox="0 0 138 138">
  <g id="track-keys-grey">
    <g id="track-key-7-grey">
      <path d="M61.9,104.1c.07-7.6.78-14.93,2.12-22,1.35-7.07,3.59-14.01,6.73-20.83,3.13-6.82,7.38-13.67,12.75-20.58h-35.2v-6.6h42.9v6.3c-4.6,5.3-8.34,10.8-11.22,16.5-2.88,5.7-5.11,11.37-6.67,17-1.57,5.63-2.64,11.02-3.23,16.15-.58,5.13-.89,9.82-.92,14.05h-7.25Z" fill="#999"/>
      <g id="cushion-grey">
        <path d="M69,4.7c16.77,0,33.78.8,50.53,2.37,5.52.54,10.85,5.87,11.39,11.37,3.15,33.55,3.15,67.56,0,101.09-.54,5.52-5.87,10.85-11.37,11.39-16.77,1.58-33.78,2.38-50.55,2.38s-33.78-.8-50.53-2.37c-5.52-.54-10.85-5.87-11.39-11.37-3.15-33.55-3.15-67.56,0-101.09.54-5.52,5.87-10.85,11.37-11.39,16.77-1.58,33.78-2.38,50.55-2.38M69,0C52,0,35,.8,18.01,2.4c-7.75.76-14.85,7.86-15.61,15.61C-.8,52-.8,86,2.4,119.99c.76,7.75,7.86,14.85,15.61,15.61,17,1.6,34,2.4,50.99,2.4s34-.8,50.99-2.4c7.75-.76,14.85-7.86,15.61-15.61,3.2-34,3.2-67.99,0-101.99-.76-7.75-7.86-14.84-15.61-15.61C103,.8,86,0,69,0h0Z" fill="#999"/>
      </g>
    </g>
  </g>
</svg>