<?xml version="1.0" encoding="UTF-8"?>
<svg id="track8-keys" xmlns="http://www.w3.org/2000/svg" width="138" height="138" viewBox="0 0 138 138">
  <g id="keypad-light">
    <g id="shift-light">
      <path id="arrow-up" d="M35.53,62.8l32.81-27.34c.5-.41,1.21-.41,1.71,0l32.61,27.17c.57.47.23,1.4-.51,1.4h-16.88c-.79,0-1.43.64-1.43,1.43v32.36c0,.74-.6,1.34-1.34,1.34h-26.63c-.72,0-1.31-.59-1.31-1.31v-32.45c0-.76-.61-1.37-1.37-1.37h-17.21c-.65,0-.94-.81-.44-1.23Z" fill="none" stroke="#323232" stroke-linecap="round" stroke-linejoin="round" stroke-width="4.72"/>
      <g id="cushion-outline">
        <g id="rect24298">
          <path d="M69,4.7c16.77,0,33.78.8,50.53,2.37,5.52.54,10.85,5.87,11.39,11.37,3.15,33.55,3.15,67.56,0,101.09-.54,5.52-5.87,10.85-11.37,11.39-16.77,1.58-33.78,2.38-50.55,2.38s-33.78-.8-50.53-2.37c-5.52-.54-10.85-5.87-11.39-11.37-3.15-33.55-3.15-67.56,0-101.09.54-5.52,5.87-10.85,11.37-11.39,16.77-1.58,33.78-2.38,50.55-2.38M69,0C52,0,35,.8,18.01,2.4c-7.75.76-14.85,7.86-15.61,15.61C-.8,52-.8,86,2.4,119.99c.76,7.75,7.86,14.84,15.61,15.61,17,1.6,34,2.4,50.99,2.4s34-.8,50.99-2.4c7.75-.76,14.85-7.86,15.61-15.61,3.2-34,3.2-67.99,0-101.99-.76-7.75-7.86-14.84-15.61-15.61C103,.8,86,0,69,0h0Z" fill="#323232"/>
        </g>
      </g>
    </g>
  </g>
</svg>