<?xml version="1.0" encoding="UTF-8"?>
<svg id="track8-keys" xmlns="http://www.w3.org/2000/svg" width="138" height="138" viewBox="0 0 138 138">
  <g id="track-keys-light">
    <g id="track-key-8-light">
      <path d="M69.97,105.3c-4.43,0-8.37-.92-11.8-2.75-3.43-1.83-6.12-4.33-8.08-7.5s-2.92-6.73-2.92-10.7c0-4.5,1.19-8.41,3.58-11.72,2.38-3.32,5.47-5.68,9.27-7.08-2.07-.87-3.83-2.05-5.27-3.55-1.45-1.5-2.55-3.2-3.3-5.1-.75-1.9-1.12-3.92-1.12-6.05,0-3.33.84-6.35,2.53-9.05,1.68-2.7,4-4.86,6.95-6.48,2.95-1.62,6.34-2.42,10.17-2.42s7.23.81,10.2,2.42c2.97,1.62,5.29,3.78,6.97,6.48,1.68,2.7,2.53,5.72,2.53,9.05,0,2.13-.37,4.14-1.1,6.03s-1.82,3.57-3.27,5.07-3.28,2.7-5.48,3.6c3.93,1.43,7.08,3.8,9.43,7.1,2.35,3.3,3.52,7.2,3.52,11.7,0,3.97-.97,7.53-2.92,10.7s-4.64,5.67-8.08,7.5c-3.43,1.83-7.37,2.75-11.8,2.75ZM69.97,98.65c2.93,0,5.58-.6,7.92-1.8,2.35-1.2,4.2-2.91,5.55-5.12,1.35-2.22,2.03-4.84,2.03-7.88,0-2.73-.65-5.26-1.95-7.58-1.3-2.32-3.12-4.17-5.45-5.55-2.33-1.38-5.03-2.08-8.1-2.08s-5.77.69-8.1,2.08c-2.33,1.38-4.14,3.23-5.43,5.55-1.28,2.32-1.92,4.84-1.92,7.58,0,3.03.67,5.66,2,7.88s3.17,3.92,5.5,5.12,4.98,1.8,7.95,1.8ZM69.97,62.75c3.77,0,6.8-1.09,9.1-3.28,2.3-2.18,3.45-4.91,3.45-8.17,0-3.63-1.19-6.51-3.58-8.62-2.38-2.12-5.38-3.17-8.97-3.17s-6.54,1.06-8.92,3.17c-2.38,2.12-3.58,4.99-3.58,8.62,0,3.27,1.13,5.99,3.4,8.17,2.27,2.18,5.3,3.28,9.1,3.28Z" fill="#323232"/>
      <g id="rect24298">
        <path d="M69,4.7c16.77,0,33.78.8,50.53,2.37,5.52.54,10.85,5.87,11.39,11.37,3.15,33.55,3.15,67.56,0,101.09-.54,5.52-5.87,10.85-11.37,11.39-16.77,1.58-33.78,2.38-50.55,2.38s-33.78-.8-50.53-2.37c-5.52-.54-10.85-5.87-11.39-11.37-3.15-33.55-3.15-67.56,0-101.09.54-5.52,5.87-10.85,11.37-11.39,16.77-1.58,33.78-2.38,50.55-2.38M69,0C52,0,35,.8,18.01,2.4c-7.75.76-14.84,7.86-15.61,15.61C-.8,52-.8,86,2.4,119.99c.76,7.75,7.86,14.84,15.61,15.61,17,1.6,34,2.4,50.99,2.4s34-.8,50.99-2.4c7.75-.76,14.85-7.86,15.61-15.61,3.2-34,3.2-67.99,0-101.99-.76-7.75-7.86-14.85-15.61-15.61C103,.8,86,0,69,0h0Z" fill="#323232"/>
      </g>
    </g>
  </g>
</svg>