<?xml version="1.0" encoding="UTF-8"?>
<svg id="track8-keys" xmlns="http://www.w3.org/2000/svg" width="138" height="138" viewBox="0 0 138 138">
  <g id="encoders-light">
    <g id="encoder-1-light">
      <g id="encoder-light">
        <g opacity=".3">
          <g>
            <path d="M69,135.04c-2.19,0-4.28-.69-6.04-2.01l-3.52-2.63c-1.4-1.05-3.13-1.62-4.88-1.62-.61,0-1.21.07-1.8.2l-4.29.97c-.73.17-1.48.25-2.23.25-3.65,0-7.02-1.98-8.8-5.16l-2.15-3.84c-1.17-2.09-3.18-3.55-5.53-4.01l-4.31-.86c-4.35-.86-7.68-4.55-8.08-8.97l-.4-4.38c-.22-2.38-1.46-4.54-3.41-5.91l-3.59-2.54c-3.63-2.56-5.16-7.28-3.73-11.49l1.42-4.16c.77-2.26.51-4.74-.71-6.79l-2.25-3.78c-2.27-3.81-1.75-8.75,1.26-12.01l2.99-3.23c1.62-1.75,2.39-4.12,2.11-6.5l-.52-4.37c-.52-4.41,1.96-8.71,6.04-10.46l4.04-1.73c2.2-.94,3.86-2.79,4.57-5.08l1.3-4.2c1.32-4.25,5.19-7.1,9.63-7.1l4.64.06c2.35,0,4.58-1.01,6.13-2.78l2.9-3.31c1.92-2.19,4.68-3.44,7.59-3.44,1.47,0,2.89.31,4.22.93l3.99,1.84c1.08.5,2.23.75,3.42.75s2.34-.25,3.42-.75l3.99-1.84c1.34-.62,2.76-.93,4.22-.93,2.91,0,5.68,1.25,7.59,3.44l2.9,3.31c1.55,1.77,3.78,2.78,6.13,2.78l4.64-.06c4.45,0,8.32,2.85,9.63,7.1l1.3,4.2c.71,2.28,2.37,4.13,4.57,5.08l4.04,1.73c4.08,1.75,6.56,6.05,6.04,10.46l-.52,4.37c-.28,2.37.49,4.74,2.11,6.5l2.99,3.23c3.02,3.26,3.53,8.2,1.26,12.01l-2.25,3.78c-1.22,2.05-1.48,4.53-.71,6.79l1.42,4.16c1.43,4.2-.11,8.93-3.73,11.49l-3.59,2.54c-1.95,1.38-3.2,3.53-3.41,5.91l-.4,4.38c-.4,4.42-3.73,8.11-8.08,8.97l-4.31.86c-2.34.46-4.36,1.93-5.52,4.01l-2.15,3.84c-1.78,3.18-5.15,5.16-8.8,5.16-.75,0-1.5-.08-2.23-.25l-4.29-.97c-.59-.13-1.2-.2-1.8-.2-1.75,0-3.48.58-4.88,1.62l-3.52,2.63c-1.76,1.31-3.85,2.01-6.04,2.01Z" fill="#999"/>
            <path d="M80.63,6.68c2.19,0,4.27.94,5.71,2.59l2.9,3.31c2.02,2.31,4.94,3.63,8.01,3.63h.14s4.4-.06,4.4-.06h.1c3.34,0,6.25,2.15,7.24,5.34l1.3,4.2c.92,2.98,3.1,5.4,5.97,6.63l4.04,1.73c3.07,1.32,4.94,4.55,4.54,7.87l-.52,4.37c-.37,3.1.64,6.2,2.76,8.49l2.99,3.23c2.27,2.45,2.66,6.17.95,9.03l-2.25,3.78c-1.6,2.68-1.94,5.92-.93,8.88l1.42,4.16c1.07,3.16-.08,6.71-2.81,8.64l-3.59,2.54c-2.55,1.8-4.18,4.62-4.46,7.73l-.4,4.38c-.3,3.32-2.8,6.1-6.08,6.75l-4.31.86c-3.06.61-5.7,2.52-7.22,5.25l-2.15,3.84c-1.34,2.4-3.88,3.88-6.62,3.88-.56,0-1.13-.06-1.68-.19l-4.29-.97c-.77-.17-1.56-.26-2.35-.26-2.28,0-4.55.75-6.38,2.12l-3.52,2.63c-1.32.99-2.89,1.51-4.54,1.51s-3.22-.52-4.54-1.51l-3.52-2.63c-1.83-1.37-4.09-2.12-6.38-2.12-.79,0-1.58.09-2.35.26l-4.29.97c-.55.13-1.12.19-1.68.19-2.74,0-5.28-1.49-6.62-3.88l-2.15-3.84c-1.52-2.73-4.16-4.64-7.22-5.25l-4.31-.86c-3.27-.65-5.77-3.43-6.08-6.75l-.4-4.38c-.28-3.11-1.91-5.93-4.46-7.73l-3.59-2.54c-2.73-1.93-3.88-5.48-2.81-8.64l1.42-4.16c1.01-2.96.67-6.19-.93-8.88l-2.25-3.78c-1.71-2.87-1.32-6.58.95-9.03l2.99-3.23c2.12-2.29,3.13-5.39,2.76-8.49l-.52-4.37c-.39-3.32,1.47-6.55,4.54-7.87l4.04-1.73c2.87-1.23,5.05-3.65,5.97-6.63l1.3-4.2c.99-3.19,3.9-5.34,7.24-5.34h.1s4.4.06,4.4.06h.14c3.07,0,5.99-1.32,8.01-3.63l2.9-3.31c1.44-1.64,3.52-2.59,5.71-2.59,1.1,0,2.17.24,3.17.7l3.99,1.84c1.41.65,2.91.98,4.46.98s3.05-.33,4.46-.98l3.99-1.84c1-.46,2.07-.7,3.17-.7M80.63,1.68c-1.78,0-3.58.38-5.27,1.16l-3.99,1.84c-.75.35-1.56.52-2.37.52s-1.62-.17-2.37-.52l-3.99-1.84c-1.69-.78-3.49-1.16-5.27-1.16-3.55,0-7.02,1.5-9.47,4.29l-2.9,3.31c-1.07,1.23-2.62,1.93-4.25,1.93-.03,0-.05,0-.08,0l-4.4-.06c-.06,0-.11,0-.17,0-5.51,0-10.39,3.59-12.02,8.86l-1.3,4.2c-.49,1.58-1.65,2.87-3.17,3.52l-4.04,1.73c-5.13,2.2-8.19,7.51-7.54,13.05l.52,4.37c.2,1.64-.34,3.29-1.46,4.5l-2.99,3.23c-3.79,4.09-4.43,10.19-1.58,14.99l2.25,3.78c.85,1.42,1.03,3.14.49,4.71l-1.42,4.16c-1.8,5.28.1,11.12,4.66,14.33l3.59,2.54c1.35.95,2.22,2.45,2.37,4.1l.4,4.38c.51,5.56,4.61,10.11,10.08,11.2l4.31.86c1.62.32,3.02,1.34,3.83,2.78l2.15,3.84c2.26,4.04,6.5,6.44,10.98,6.44.92,0,1.86-.1,2.79-.31l4.29-.97c.41-.09.83-.14,1.25-.14,1.21,0,2.4.39,3.38,1.12l3.52,2.63c2.23,1.67,4.88,2.51,7.54,2.51s5.3-.83,7.54-2.51l3.52-2.63c.99-.74,2.17-1.12,3.38-1.12.42,0,.84.05,1.25.14l4.29.97c.93.21,1.86.31,2.79.31,4.48,0,8.72-2.41,10.98-6.44l2.15-3.84c.81-1.44,2.21-2.46,3.83-2.78l4.31-.86c5.47-1.09,9.58-5.64,10.08-11.2l.4-4.38c.15-1.65,1.02-3.15,2.37-4.1l3.59-2.54c4.56-3.22,6.45-9.05,4.66-14.33l-1.42-4.16c-.53-1.57-.35-3.29.49-4.71l2.25-3.78c2.85-4.79,2.21-10.89-1.58-14.99l-2.99-3.23c-1.12-1.21-1.66-2.86-1.46-4.5l.52-4.37c.66-5.54-2.41-10.85-7.54-13.05l-4.04-1.73c-1.52-.65-2.68-1.94-3.17-3.52l-1.3-4.2c-1.63-5.27-6.51-8.86-12.02-8.86-.06,0-.12,0-.17,0l-4.4.06s-.05,0-.08,0c-1.63,0-3.17-.7-4.25-1.93l-2.9-3.31c-2.45-2.79-5.92-4.29-9.47-4.29h0Z" fill="#999"/>
          </g>
        </g>
        <path d="M80.63,6.68c2.19,0,4.27.94,5.71,2.59l2.9,3.31c2.02,2.31,4.94,3.63,8.01,3.63h.14s4.4-.06,4.4-.06h.1c3.34,0,6.25,2.15,7.24,5.34l1.3,4.2c.92,2.98,3.1,5.4,5.97,6.63l4.04,1.73c3.07,1.32,4.94,4.55,4.54,7.87l-.52,4.37c-.37,3.1.64,6.2,2.76,8.49l2.99,3.23c2.27,2.45,2.66,6.17.95,9.03l-2.25,3.78c-1.6,2.68-1.94,5.92-.93,8.88l1.42,4.16c1.07,3.16-.08,6.71-2.81,8.64l-3.59,2.54c-2.55,1.8-4.18,4.62-4.46,7.73l-.4,4.38c-.3,3.32-2.8,6.1-6.08,6.75l-4.31.86c-3.06.61-5.7,2.52-7.22,5.25l-2.15,3.84c-1.34,2.4-3.88,3.88-6.62,3.88-.56,0-1.13-.06-1.68-.19l-4.29-.97c-.77-.17-1.56-.26-2.35-.26-2.28,0-4.55.75-6.38,2.12l-3.52,2.63c-1.32.99-2.89,1.51-4.54,1.51s-3.22-.52-4.54-1.51l-3.52-2.63c-1.83-1.37-4.09-2.12-6.38-2.12-.79,0-1.58.09-2.35.26l-4.29.97c-.55.13-1.12.19-1.68.19-2.74,0-5.28-1.49-6.62-3.88l-2.15-3.84c-1.52-2.73-4.16-4.64-7.22-5.25l-4.31-.86c-3.27-.65-5.77-3.43-6.08-6.75l-.4-4.38c-.28-3.11-1.91-5.93-4.46-7.73l-3.59-2.54c-2.73-1.93-3.88-5.48-2.81-8.64l1.42-4.16c1.01-2.96.67-6.19-.93-8.88l-2.25-3.78c-1.71-2.87-1.32-6.58.95-9.03l2.99-3.23c2.12-2.29,3.13-5.39,2.76-8.49l-.52-4.37c-.39-3.32,1.47-6.55,4.54-7.87l4.04-1.73c2.87-1.23,5.05-3.65,5.97-6.63l1.3-4.2c.99-3.19,3.9-5.34,7.24-5.34h.1s4.4.06,4.4.06h.14c3.07,0,5.99-1.32,8.01-3.63l2.9-3.31c1.44-1.64,3.52-2.59,5.71-2.59,1.1,0,2.17.24,3.17.7l3.99,1.84c1.41.65,2.91.98,4.46.98s3.05-.33,4.46-.98l3.99-1.84c1-.46,2.07-.7,3.17-.7M80.63,1.68c-1.78,0-3.58.38-5.27,1.16l-3.99,1.84c-.75.35-1.56.52-2.37.52s-1.62-.17-2.37-.52l-3.99-1.84c-1.69-.78-3.49-1.16-5.27-1.16-3.55,0-7.02,1.5-9.47,4.29l-2.9,3.31c-1.07,1.23-2.62,1.93-4.25,1.93-.03,0-.05,0-.08,0l-4.4-.06c-.06,0-.11,0-.17,0-5.51,0-10.39,3.59-12.02,8.86l-1.3,4.2c-.49,1.58-1.65,2.87-3.17,3.52l-4.04,1.73c-5.13,2.2-8.19,7.51-7.54,13.05l.52,4.37c.2,1.64-.34,3.29-1.46,4.5l-2.99,3.23c-3.79,4.09-4.43,10.19-1.58,14.99l2.25,3.78c.85,1.42,1.03,3.14.49,4.71l-1.42,4.16c-1.8,5.28.1,11.12,4.66,14.33l3.59,2.54c1.35.95,2.22,2.45,2.37,4.1l.4,4.38c.51,5.56,4.61,10.11,10.08,11.2l4.31.86c1.62.32,3.02,1.34,3.83,2.78l2.15,3.84c2.26,4.04,6.5,6.44,10.98,6.44.92,0,1.86-.1,2.79-.31l4.29-.97c.41-.09.83-.14,1.25-.14,1.21,0,2.4.39,3.38,1.12l3.52,2.63c2.23,1.67,4.88,2.51,7.54,2.51s5.3-.83,7.54-2.51l3.52-2.63c.99-.74,2.17-1.12,3.38-1.12.42,0,.84.05,1.25.14l4.29.97c.93.21,1.86.31,2.79.31,4.48,0,8.72-2.41,10.98-6.44l2.15-3.84c.81-1.44,2.21-2.46,3.83-2.78l4.31-.86c5.47-1.09,9.58-5.64,10.08-11.2l.4-4.38c.15-1.65,1.02-3.15,2.37-4.1l3.59-2.54c4.56-3.22,6.45-9.05,4.66-14.33l-1.42-4.16c-.53-1.57-.35-3.29.49-4.71l2.25-3.78c2.85-4.79,2.21-10.89-1.58-14.99l-2.99-3.23c-1.12-1.21-1.66-2.86-1.46-4.5l.52-4.37c.66-5.54-2.41-10.85-7.54-13.05l-4.04-1.73c-1.52-.65-2.68-1.94-3.17-3.52l-1.3-4.2c-1.63-5.27-6.51-8.86-12.02-8.86-.06,0-.12,0-.17,0l-4.4.06s-.05,0-.08,0c-1.63,0-3.17-.7-4.25-1.93l-2.9-3.31c-2.45-2.79-5.92-4.29-9.47-4.29h0Z" fill="#323232"/>
      </g>
      <path d="M68.33,104.1v-56.6h-11.75v-4.75c2.53,0,4.7-.24,6.5-.73,1.8-.48,3.29-1.35,4.47-2.6s2.11-3.03,2.78-5.33h5v70h-7Z" fill="#323232"/>
    </g>
  </g>
</svg>